<?xml version="1.0" encoding="UTF-8" standalone="no"?>
<!-- Created with Inkscape (http://www.inkscape.org/) -->

<svg
   width="15.24mm"
   height="128.5mm"
   viewBox="0 0 15.24 128.5"
   version="1.1"
   id="svg2744"
   inkscape:version="1.2.1 (9c6d41e410, 2022-07-14, custom)"
   sodipodi:docname="3hp.svg"
   xmlns:inkscape="http://www.inkscape.org/namespaces/inkscape"
   xmlns:sodipodi="http://sodipodi.sourceforge.net/DTD/sodipodi-0.dtd"
   xmlns:xlink="http://www.w3.org/1999/xlink"
   xmlns="http://www.w3.org/2000/svg"
   xmlns:svg="http://www.w3.org/2000/svg">
  <sodipodi:namedview
     id="namedview2746"
     pagecolor="#ffffff"
     bordercolor="#666666"
     borderopacity="1.0"
     inkscape:pageshadow="2"
     inkscape:pageopacity="0"
     inkscape:pagecheckerboard="false"
     inkscape:document-units="mm"
     showgrid="false"
     showborder="true"
     inkscape:showpageshadow="false"
     height="128.5mm"
     inkscape:zoom="5.6568543"
     inkscape:cx="42.77996"
     inkscape:cy="482.4236"
     inkscape:window-width="1276"
     inkscape:window-height="1401"
     inkscape:window-x="0"
     inkscape:window-y="127"
     inkscape:window-maximized="1"
     inkscape:current-layer="layer1"
     inkscape:deskcolor="#d1d1d1"
     showguides="true">
    <sodipodi:guide
       position="3.4881506,2.7236088"
       orientation="0,-1"
       id="guide519"
       inkscape:locked="false" />
    <sodipodi:guide
       position="4.1671876,0.73932327"
       orientation="0,-1"
       id="guide1470"
       inkscape:locked="false" />
  </sodipodi:namedview>
  <defs
     id="defs2741">
    <linearGradient
       inkscape:collect="always"
       id="linearGradient3196">
      <stop
         style="stop-color:#483737;stop-opacity:1;"
         offset="0"
         id="stop3192" />
      <stop
         style="stop-color:#f6ffd5;stop-opacity:1"
         offset="1"
         id="stop3194" />
    </linearGradient>
    <linearGradient
       inkscape:collect="always"
       xlink:href="#linearGradient3196"
       id="linearGradient3198"
       x1="5.4269781"
       y1="40.443226"
       x2="8.5789099"
       y2="105.16194"
       gradientUnits="userSpaceOnUse" />
  </defs>
  <g
     inkscape:label="Layer 1"
     inkscape:groupmode="layer"
     id="layer1">
    <rect
       style="fill:url(#linearGradient3198);stroke-width:0.264583;fill-opacity:1"
       id="rect2880"
       width="15.24"
       height="128.5"
       x="0"
       y="0" />
    <g
       id="g3480"
       transform="matrix(0.04318492,0,0,0.03716219,-24.492052,104.8176)">
      <path
         fill="#140a07"
         d="m 854.77,615.38 c 0.0208,-0.0374 0.0454,-0.0717 0.0663,-0.1089 l -4.7399,0.8089 c -0.0127,0.01 -0.0237,0.0206 -0.0364,0.03 -2.1665,0.0922 -4.2942,-0.0936 -6.3706,-0.4977 l -10.4572,-0.2954 c 0.0189,0.0148 0.0388,0.0283 0.0577,0.0432 1.97,1.41 4.22,2.33 6.49,3.16 0.45,-0.54 1.34,-1.62 1.79,-2.17 0.4099,1.23 0.8199,2.47 1.25,3.71 1.9099,-0.03 3.8398,-0.07 5.77,-0.1 0.0299,-0.91 0.0798,-1.81 0.1299,-2.7 1.48,-0.26 2.97,-0.52 4.47,-0.77 -1,0.77 -2.02,1.52 -3.01,2.3 5.3501,-0.45 10.6801,0.46 16.04,0.11 -2.4299,-0.71 -5.08,-1.13 -6.9299,-3.01 C 857.78,615.72 856.27,615.54 854.77,615.38 Z"
         id="path3457" />
      <g
         id="g3465">
        <path
           fill="#030102"
           d="m 509.18,610.57 c 0.19,-3.51 1,-7.52 -1.39,-10.5 -2.34,-2.65 -4.9901,-5.13 -6.36,-8.47 -3.65,-6.92 -2.48,-14.98 -4.18,-22.38 -0.72,-3.06 -2.69,-5.58 -4.65,-7.9399 -1.82,-2.3 -3.91,-4.36 -6.22,-6.14 0.04,-2.13 0.05,-4.26 0.05,-6.37 -3.18,-2.09 -6.39,-4.5 -10.35,-4.63 0.53,-2.36 1.13,-4.7 1.87,-7 0.57,-2.02 1.44,-4.02 1.46,-6.14 -0.8,-4.39 -3.39,-8.15 -5.34,-12.09 -0.63,-0.11 -1.9,-0.3199 -2.53,-0.42 -0.25,-3.09 -0.94,-6.11 -2.08,-8.99 -2.06,-0.06 -4.11,-0.11 -6.16,-0.14 -0.95,2.12 -2.17,4.31 -1.8799,6.73 0.29,2.41 1.4399,4.59 2,6.94 -1.33,3.6 -3.63,6.72 -5.53,10.02 -4.3,-1.97 -8.56,-4.09 -13.12,-5.37 -0.91,0.87 -1.36,1.97 -1.35,3.3 1.56,0.71 3.15,1.36 4.71,2.06 2.98,1.45 5.44,3.7 7.89,5.89 -1.13,1.99 -2.5,3.82 -4.09,5.46 -0.43,-0.85 -1.3,-2.55 -1.73,-3.4 -0.56,0.54 -1.68,1.6 -2.23,2.13 -1.49,0.11 -2.96,0.25 -4.43,0.39 -0.56,-0.32 -1.6801,-0.97 -2.2401,-1.3 -1.1,1.44 -2.27,2.83 -3.44,4.22 0.5,0.19 1.51,0.57 2.01,0.76 -4.55,1.26 -8.55,3.84 -12.52,6.3 -3.89,2.35 -5.75,7.13 -10.11,8.82 -3.71,1.49 -8.42,1.48 -11.77,-0.84 -2.23,-2.8199 -3.58,-6.3 -6.48,-8.58 -2.29,-3.62 -5.27,-6.93 -6.0099,-11.3 -3.28,-0.26 -6.71,-0.67 -9.78,0.79 -4.27,1.85 -9.17,0.72 -13.46,2.47 -2.5,1.04 -3.52,3.72 -4.78,5.9 0.68,0.97 1.37,1.95 2.07,2.94 3.05,-0.42 6.5,-0.93 9.07,1.23 1.78,1.11 1.03,3.41 1.15,5.15 -1.83,5.54 -1.4,12.26 -5.52,16.76 -5.02,4.28 -11.54,0.65 -15.4,-3.35 0.11,-6.68 -5.59,-10.74 -9.14,-15.63 -1.56,-2.12 -3.57,-3.81 -5.67,-5.35 -0.06,-2.23 -0.11,-4.46 -0.15,-6.68 -0.93,-0.91 -1.89,-1.77 -2.85,-2.62 -0.03,-0.24 -0.08,-0.72 -0.1,-0.96 1.22,-4.09 2.72,-8.19 5.18,-11.7 2.56,-0.21 5.2,0.59 7.7,-0.18 2.32,-0.94 1.15,-3.92 0.4301,-5.64 -1.83,-3.11 -2.81,-6.58 -3.57,-10.07 -1.94,-0.07 -3.88,-0.13 -5.82,-0.17 0.04,0.41 0.11,1.23 0.15,1.64 2.13,1.95 3.73,4.36 5.1801,6.85 -3.19,-2.58 -8.11,-3.12 -10.21,-6.86 0.5,-1.72 1.24,-3.35 1.95,-4.99 -1.41,-1.62 -2.82,-3.22 -4.26,-4.81 -3.58,0.14 -6.28,2.37 -7.87,5.46 1.54,2.17 2.78,4.54 3.34,7.17 -2.61,0.76 -5.49,1.22 -7.57,3.13 -2.56,2.16 -4.73,5.08 -8.08,6.05 -4.45,1.15 -9.08,1.21 -13.64,1.43 0.71,3.23 -0.16,6.38 -1.67,9.24 -1.98,0.33 -3.96,0.7 -5.96,0.73 -0.85,0.03 -2.57,0.07 -3.43,0.1 1.02,0.87 2.02,1.71 3.05,2.61 -3.2,1.52 -6.58,2.62 -9.83,4 -3.77,1.52 -6.24,5.02 -9.94,6.66 -7.22,3.54 -16.27,4.5 -23.65,0.98 -6.42,-4.34 -11.48,-10.37 -16.32,-16.35 -5.7,-0.85 -11.12,0.98 -16.62,2.09 -3.59,0.23 -5.99,3.19 -8.62,5.29 -0.61,2.0699 -0.9,4.22 -1.14,6.37 0.54,0.12 1.62,0.34 2.16,0.46 2.4901,5.57 0.01,11.46 -0.03,17.21 -0.1,5.25 -1.17,10.39 -1.97,15.56 0.22,7.7 -2.38,16.33 -9.17,20.68 -3.81,2.63 -8.61,-0.05 -11.31,-3.04 -3.39,-3.78 -1.52,-9.18 -1.87,-13.72 2.72,-1.09 6.4,-0.5 8.42,-2.84 1.39,-4.93 -1.41,-9.58 -3.56,-13.81 -1.32,-1.05 -2.78,-1.9 -4.2,-2.79 -0.36,-4.12 -0.36,-8.45 -2.33,-12.19 -1.6,-2.94 -3.67,-5.57 -5.56,-8.31 -0.22,-3.27 0.92,-7.82 -2.7,-9.59 -2.34,-0.76 -4.99,-0.95 -7.37,-0.27 -1.07,1.83 -0.95,4.03 -1.2,6.08 1.05,3.57 3.12,6.75 4.05,10.35 -0.08,2.61 -2.77,4.17 -4.21,6.1 0.28,0.93 0.56,1.87 0.85,2.81 -0.54,5.69 0.33,11.46 -1.21,17.05 -1.02,-4.13 -1.29,-8.37 -1.8,-12.57 -0.8,-5.18 -5.27,-8.52 -9.06,-11.63 0.71,-2.47 0.52,-4.95 -0.71,-7.21 -2.58,-0.27 -5.17,-1.11 -7.77,-0.73 -1.72,1.02 -3.22,2.52 -4.13,4.31 0.14,4.83 4.48,8.07 8.17,10.51 -1.68,5.48 -2.79,11.1 -3.54,16.78 -1.23,4.22 1.79,8.9901 -0.97,12.76 0.31,2.11 1.07,4.11 2.22,5.91 0.08,5.64 -1.55,11.24 -0.73,16.88 0.05,2.26 2.31,3.27 3.7401,4.65 0.0699,1.16 0.14,2.33 0.22,3.51 -2.5811,1.1226 -5.2186,1.7757 -7.8905,2.1117 H 155.66 c -0.0278,-2.0975 -0.202,-4.2279 0.4,-6.2517 0.47,-1.93 2.52,-2.59 3.96,-3.62 1.49,1.06 3.28,1.87 4.3,3.47 1.5,2.13 0.98,4.86 1.16,7.31 -0.3651,0.2095 -0.735,0.3747 -1.1083,0.5083 h 10.2998 c -0.6675,-4.0742 -1.7151,-8.3212 -0.1714,-12.3083 1.56,0.03 3.13,0.0699 4.69,0.1 2.95,3.16 4.94,7.12 8.26,9.95 0.0712,0.9691 0.1422,1.9419 0.2134,2.925 h 5.0358 c 1.2494,-1.2514 2.5068,-2.4986 3.7808,-3.715 -2.45,-3.54 -5.34,-6.75 -7.64,-10.39 -0.75,-2.55 -1.39,-5.13 -2.1,-7.69 4.78,2.14 10.24,1.98 14.78,-0.69 1.97,-2.17 3.84,-4.51 4.92,-7.26 3.64,-9.39 1.6,-19.91 5.12,-29.3 1.31,0.53 2.66,1.05 4,1.55 -0.51,-1.93 -1.03,-3.85 -1.54,-5.77 -0.87,-0.79 -1.74,-1.57 -2.6,-2.35 0.03,-3.97 -0.5099,-8.17 1.52,-11.78 l 1.02,-0.57 c 4.49,3.3701 10.7,3.82 14.39,8.26 3.39,3.37 8.03,4.94 12.46,6.43 5.3,1.77 10.26,4.39 15.31,6.77 4.78,2.26 10.19,1.34 15.3,1.59 1.3,3.18 3.46,6.08 4.12,9.48 -1.65,6.39 -5.57,11.89 -9.55,17.05 -1.56,2.1 -3.42,4.23 -3.68,6.95 -0.55,4.16 -0.98,8.43 -2.94,12.23 -2.13,3.51 -2.92,8.44 -6.97,10.33 1.83,1.11 3.65,2.23 5.47,3.35 -0.1,-1.2599 -0.19,-2.5099 -0.28,-3.75 0.59,0.44 1.19,0.88 1.79,1.34 0.79,-1.59 1.59,-3.16 2.3,-4.78 1.81,-5.36 2.84,-11.11 6.21,-15.81 4.09,-7.2 8.52,-14.35 14.59,-20.08 3.44,7.39 5.5099,15.26 7.56,23.12 2.44,5.96 1.81,12.48 1.49,18.75 0.72,0.75 1.44,1.49 2.16,2.25 0.15,-1.2 0.31,-2.4 0.48,-3.58 0.8799,0.67 1.7599,1.35 2.65,2.04 -0.12,-5.85 -1.66,-11.68 -0.64,-17.52 0.28,-2.33 0.75,-4.75 -0.03,-7.04 -2.34,-7.2599 -3.9,-14.78 -4.64,-22.37 2.12,-0.05 4.25,-0.08 6.38,-0.1 -0.18,2.41 -0.37,4.83 -0.57,7.26 0.58,0.04 1.73,0.13 2.31,0.17 -0.67,-2.28 -2.1,-4.74 -0.95,-7.1 2.41,-0.7401 4.95,-0.2401 7.41,-0.11 0.91,1.36 1.81,2.71 2.73,4.07 0.76,-0.07 2.27,-0.2 3.03,-0.26 0.7599,-1.04 1.46,-2.13 2.35,-3.05 6.77,-2.97 14.28,-1.64 21.42,-1.71 -0.65,2.47 -1.8,5.09 -0.82,7.65 3.29,8.86 2.69,19.22 -1.42,27.72 -2.34,4.86 -5.66,9.19 -9.63,12.82 0.27,0.16 0.8,0.48 1.07,0.64 1.22,-0.13 2.45,-0.25 3.68,-0.36 0.75,-1 1.51,-1.98 2.26,-2.98 3.84,-5.38 8.44,-10.15 12.88,-15.03 -0.6,-7.87 -0.01,-15.83 2.64,-23.31 4.65,2.45 9.31,5.4 11.53,10.39 6.52,9.16 9.36,20.39 9.55,31.53 0.66,0.02 1.32,0.05 1.9901,0.09 0.42,-1.68 0.83,-3.37 1.19,-5.05 -0.15,-1.66 -0.3,-3.31 -0.48,-4.95 -1.03,-5.5 -0.18,-11.11 -0.68,-16.63 -2.22,-5.53 -5.95,-10.31 -8.53,-15.65 -1.92,-5.37 -4.81,-10.64 -4.43,-16.53 3.06,1.69 6.04,3.98 9.6299,4.33 2.86,-0.25 5.4901,-1.57 8.23,-2.32 0.18,1.7 0.38,3.41 0.59,5.13 0.72,-2.08 1.67,-4.22 1.14,-6.46 -0.98,-4.76 0.51,-9.47 1.13,-14.16 0.96,-0.7 1.94,-1.37 2.93,-2.03 l 0.93,-0.48 c -0.49,-0.91 -0.98,-1.81 -1.46,-2.71 5.39,2.61 7.58,8.43 11.77,12.35 4.09,4.04 8.6,7.7 13.53,10.68 4.04,2.49 8.95,2.33 13.52,2.18 0.8,1.37 2.41,2.64 1.97,4.43 -1.03,6.95 -1.99,14.05 -5.01,20.48 -2.44,5.13 -2.08,11.09 -4.71,16.17 -1.6299,3.16 -3.54,6.17 -5.62,9.06 -0.1558,0.2044 -0.4703,0.5864 -0.6345,0.8002 l 6.1342,0.3416 c 0.8814,-2.4835 1.782,-4.9509 2.7803,-7.3819 1.75,-4.92 4.8,-9.2 6.93,-13.93 3.29,-8.77 6.26,-18.06 12.77,-25.05 1.9,1.2 4.32,1.97 5.48,4.04 2.86,5.1801 4.85,10.85 5.82,16.69 0.68,4.9 3.59,9.05 4.86,13.77 0.64,3.83 0.47,7.72 0.19,11.58 0.93,0.49 1.86,0.97 2.8,1.48 0.71,-1.01 1.43,-2.02 2.11,-3.04 -0.34,-4.04 -1.7,-7.9 -2.15,-11.92 -0.46,-3.68 -0.31,-7.41 -0.59,-11.1 -2.06,-6.33 -3.99,-12.9 -4.06,-19.6 3.14,-1.73 6.87,-0.79 10.29,-1.28 6.36,-0.82 12.17,-3.96 18.58,-4.66 1.05,3.76 1.8,7.66 3.54,11.19 0.95,2.08 2.28,4.09 2.42,6.45 0.42,6.11 1.12,12.39 -0.57,18.38 -1.52,4.77 -4.1,9.11 -6.99,13.1801 0.68,2.04 2.45,0.92 3.82,0.36 3.66,-6.85 8.01,-13.28 12.2,-19.8 -1.25,-5.36 -1.74,-10.85 -1.43,-16.34 4.63,0.55 7.13,4.78 10.08,7.86 5.49,6.05 7.07,14.51 7.03,22.43 -0.11,2.21 0.61,4.3 1.49,6.3 1.17,-0.57 2.35,-1.13 3.53,-1.66 -0.66,-1.46 -1.2401,-2.97 -1.75,-4.47 C 509.3,621 508.63,615.78 509.18,610.57 Z m -348.11,-0.69 c -0.97,-0.45 -1.94,-0.9 -2.91,-1.35 0.55,-2.9901 1.9,-5.96 4.5,-7.69 0.06,3.09 -0.48,6.15 -1.59,9.04 z M 301.2,539.39 c 0.13,-1.34 0.27,-2.67 0.41,-3.99 1.2,0.06 2.4,0.13 3.6,0.21 0.12,-1.4 0.29,-2.8 0.51,-4.19 4.39,1.02 8.64,2.99 13.3,2.18 -0.15,0.76 -0.44,2.28 -0.59,3.04 -0.39,1.53 -0.83,3.05 -1.2599,4.57 -1.5601,0.16 -3.1201,0.33 -4.6801,0.5 -0.17,-0.46 -0.52,-1.38 -0.69,-1.84 -0.2599,-0.68 -0.77,-2.03 -1.03,-2.71 -0.71,0.05 -2.12,0.15 -2.82,0.2 -0.98,-0.52 -1.96,-1.05 -2.93,-1.56 -1.27,1.19 -2.54,2.39 -3.82,3.59 z"
           id="path3459" />
        <path
           fill="#030102"
           d="m 562.96,565.83 c -0.98,-3.67 -4.38,-5.82 -6.59,-8.69 0.58,-1.37 2.02,-2.47 2.17,-3.96 -0.84,-2.46 -2.39,-4.58 -3.66,-6.82 -3.09,-0.39 -6.02,0.49 -8.5,2.32 0.25,5.21 1.17,10.72 -1.11,15.64 -2.14,4.69 -2.13,9.94 -3.51,14.85 -0.9,3.24 -1.06,6.99 -3.6,9.49 -3.52,2.5 -7.59,5.2401 -8.0699,9.94 1.02,-0.09 2.04,-0.17 3.0699,-0.25 0.81,-3.2599 1.54,-6.7599 4.2401,-9.04 1.75,0.19 3.5,0.38 5.2599,0.55 -0.9,6.06 -2.14,12.08 -2.21,18.23 0.04,2.87 -0.99,5.56 -2.18,8.12 -1.81,3.69 -0.7,7.84 -0.62,11.7599 -0.76,1.0601 -1.88,1.76 -3.15,2.03 -2.7485,0.6815 -5.5211,1.3987 -8.3188,1.9375 h 37.2981 c -2.2825,-16.6755 -0.3785,-33.5891 -1.8993,-50.3275 0.43,-0.39 1.29,-1.17 1.72,-1.56 0.83,-4.7099 0.8,-9.5799 -0.34,-14.2199 z m -18.76,65.84 c -1.43,-1.99 0.72,-4.93 1.51,-7.04 4.27,0.3 10.67,-0.98 12.16,4.46 -3.84,3.23 -9.02,2.64 -13.67,2.58 z"
           id="path3461"
           style="display:inline" />
        <path
           fill="#030102"
           d="m 1080.51,603.96 c -3.85,-3.94 -6.8101,-8.65 -8.99,-13.69 -1.5,-6.68 -2.4301,-13.59 -1.97,-20.45 -0.29,-3.93 0.34,-8.17 -1.5701,-11.78 -2.22,-3.39 -5.6,-6.0099 -7.01,-9.91 -1.21,-3.47 -3.83,-6.13 -5.72,-9.2 -1.21,-0.57 -2.4,-1.13 -3.5699,-1.68 -0.65,-3.35 -1.4301,-6.72 -3.0601,-9.74 -2.71,-2.72 -6.46,-2.41 -9.75,-1.06 -2.89,-8.75 -4.53,-18.06 -9.3,-26.07 -1.5099,-2.69 -4.0099,-4.6 -5.7899,-7.06 -0.52,-2.81 -0.48,-5.86 -2.52,-8.11 -1.9399,0.05 -3.89,-0.06 -5.78,0.32 -2.1399,1.84 -2.74,4.73 -3.47,7.31 0.88,1.35 1.78,2.69 2.63,4.09 -0.52,0.29 -1.58,0.89 -2.1,1.18 -0.5601,2.57 -1.27,5.25 -3.23,7.14 -3.49,3.53 -6.8701,7.16 -10.41,10.65 -2.52,2.6801 -5.35,5.57 -5.76,9.41 1.51,-0.02 3.0399,-0.05 4.58,-0.17 0.6201,-0.13 1.8601,-0.39 2.48,-0.52 1.65,1.48 3.28,2.97 4.91,4.5 -1.15,0.83 -2.2899,1.83 -3.7699,1.81 -1.4302,1.9 -4.05,2.12 -6.1301,2.89 0.54,1.4 1.0901,2.81 1.65,4.24 -0.65,0.37 -1.9501,1.12 -2.6,1.5 0.09,0.66 0.29,1.98 0.38,2.64 -2.9,3.54 -5.49,7.48 -9.1801,10.26 -5.1499,3.05 -11.46,5.3 -17.4399,3.6 -3.17,-1.28 -5.24,-4.2 -7.6899,-6.44 -3.4501,-3.86 -8.1201,-6.66 -10.51,-11.39 -3.1001,0.01 -6.4701,-0.44 -9.1401,1.46 -4.1499,2.83 -9.4399,2.14 -13.8999,4.09 -2.55,1.2 -3.0901,4.2599 -4.39,6.47 1.2699,1.31 2.6901,2.43 4.2001,3.46 -2.2201,4.49 -5.73738,7.63218 -8.64748,11.67208 -5.49847,4.20868 -17.88315,8.51325 -30.46405,1.27019 -1.06607,-2.04534 -1.6631,-4.34592 -2.37867,-6.53237 -0.9301,-2.29 -2.75,-4.07 -4.89,-5.22 -3.8899,-2.23 -6.52,-5.94 -9.6,-9.07 0.03,-0.58 0.09,-1.72 0.12,-2.29 -1.53,-0.07 -3.04,-0.12 -4.54,-0.16 -2.8699,-2.7 -5.0999,-5.95 -7.52,-9.03 -1.71,0.04 -3.4099,0.1 -5.0898,0.2 -0.0701,-2.86 -0.3101,-5.7 -1.03,-8.47 -3.48,-2.27 -4.8901,-6.34 -7.1901,-9.6 -1.12,-0.12 -2.23,-0.23 -3.33,-0.33 -0.6001,-2.55 -1.3301,-5.14 -2.99,-7.21 -2.29,-2.9 -3.52,-6.44 -5.5701,-9.47 -2.3199,-2.5 -5.9299,-1.63 -8.86,-1.1 -0.2899,2.17 -0.5499,4.35 -0.8199,6.53 1.08,3.43 2.71,7.31 0.9399,10.81 -2.23,4.78 -4.88,9.35 -7.51,13.92 -1.48,2.41 -3.3101,4.58 -5.1799,6.7 1.5599,0.66 3.1199,1.3 4.71,1.95 -0.76,2.31 -2.05,4.39 -3.4399,6.37 -1.03,-0.97 -2.05,-1.9301 -3.0601,-2.88 0.99,1.4 2.01,2.79 3.03,4.19 -1.63,3.08 -1.77,6.55 -2.3,9.92 -2.96,3.19 -7.85,3.81 -12,3.78 -2.98,0.13 -5.72,-1.21 -7.85,-3.19 -3.3199,-4.1299 -7.83,-7.8 -8.9,-13.25 -1.54,-1.97 -3.73,-3.3 -6.3,-2.47 -5.73,1.32 -11.6099,1 -17.4199,0.7 -1.0901,1.59 -3.79,2.84 -3.13,5.1 0.7999,1.01 1.66,1.98 2.5699,2.92 -0.3999,0.29 -1.22,0.86 -1.6199,1.15 v 0 c -5.99,0.1 -12.7301,1.16 -17.9401,-2.51 -0.62,0.54 -1.87,1.63 -2.49,2.17 -1.78,-2.33 -3.41,-4.84 -3.8099,-7.8 -0.6901,-1.05 -1.3201,-2.15 -1.9401,-3.23 -2.87,-1.12 -5.55,-2.75 -7.3,-5.35 -0.5399,-0.11 -1.6,-0.33 -2.14,-0.44 1.3801,1.62 2.8,3.2 4.24,4.78 -1.3599,0.35 -2.72,0.71 -4.0699,1.07 -0.9301,-3.2 -1.4501,-6.51 -1.4301,-9.85 l -0.79,-0.29 c -1.2,-1.28 -2.3099,-2.64 -3.4299,-3.96 -1.25,0.87 -2.47,1.75 -3.6799,2.65 0.1699,-2.71 -0.96,-5.11 -2.5701,-7.19 0.29,-0.3 0.88,-0.88 1.17,-1.18 -1.37,-3.43 -2.2201,-7.03 -2.8,-10.67 -1.7999,-5.91 -5.96,-10.76 -11.56,-13.38 -0.09,-2.87 -1.08,-5.96 -3.97,-7.11 -2.21,-1.66 -4.87,-0.56 -6.55,1.2401 -1.12,2.73 -0.77,5.71 -0.57,8.58 0.92,0.63 1.84,1.27 2.77,1.92 -1.1299,6.61 -5.0699,12.16 -7.27,18.4 -1.09,3.34 -4.08,5.35 -6.48,7.69 0.35,1.77 1.29,3.36 2.04,5 -2.77,2.69 -5.71,5.21 -8.86,7.45 -5.13,3.6 -8.61,9.34 -14.52,11.84 -4,1.63 -8.79,3.1 -12.86,0.95 -2.04,-0.9901 -3.1,-3.1 -4.15,-4.97 -2.54,-5.08 -6,-9.64 -8.26,-14.87 -1.55,-3.24 -5.7,-2.79 -8.68,-3.12 -4.05,2.59 -8.87,2.24 -13.46,2.32 -2.54,-0.09 -4.48,1.74 -6.24,3.31 -0.84,2.88 0.66,5.56 1.88,8.07 0.37,-0.2 1.11,-0.6 1.49,-0.8 0.48,-0.25 1.45,-0.7401 1.94,-0.9901 3.76,2.4301 7.26,5.2401 11.17,7.44 1,2.51 1.8,5.29 3.89,7.16 2.67,2.39 5.94,3.98 8.67,6.32 2.98,2.53 6.16,4.86 9.76,6.43 4.97,2.37 10.6299,1.3 15.95,1.63 0.42,0.88 0.86,1.76 1.31,2.64 1.56,0.3 3.16,0.55 4.72,0.9901 -0.3,2.15 -1.43,4.06 -2.56,5.88 -3.99,6.14 -9.22,11.35 -14.82,16.03 -0.22,4.93 3.1,8.81 4.6,13.26 1.35,3.46 1.74,7.19 2.85,10.73 0.91,2.16 2.66,3.83 3.94,5.77 0.22,-0.46 0.66,-1.39 0.88,-1.85 0.5,0.36 1.49,1.08 1.99,1.45 1.67,0.24 3.35,0.48 5.04,0.7 2.52,0.25 5.04,0.56 7.56,0.89 -0.68,0.71 -1.35,1.43 -2.02,2.15 1.95,0.25 3.8101,-0.31 5.41,-1.42 -1.04,-0.77 -2.08,-1.52 -3.11,-2.27 5.07,-1.7401 9.38,1.85 13.88,3.53 4.09,1.67 8.58,0.75 12.87,0.65 4.57,0.9 7.89,-2.33 10.8899,-5.22 4.6802,-5.75 9.28,-11.57 14.4202,-16.93 -0.04,-6.89 0.95,-13.8 3.1399,-20.35 1.3,-3.75 2.29,-7.9 5.42,-10.6 0.4401,2.12 0.84,4.25 1.26,6.39 l -1.7301,-0.26 c -0.3899,1.5 -0.7899,2.99 -1.1799,4.5 1.16,-0.93 2.3,-1.88 3.53,-2.74 -0.64,3.81 -3.03,6.92 -4.75,10.28 0.8899,-0.04 2.6899,-0.13 3.59,-0.17 -0.5699,1.37 -1.15,2.74 -1.75,4.11 l 1.89,0.98 c 0.73,-2 1.0801,-4.11 1.1,-6.24 -0.64,0.2 -1.91,0.59 -2.5499,0.78 1.27,-2.31 2.46,-4.65 3.5699,-7.03 0.38,0.3 1.13,0.9 1.51,1.2 1.24,0.59 2.5,1.16 3.77,1.7401 0.24,0.42 0.7,1.2599 0.9301,1.68 6.4199,9.44 10.9099,20.68 10.5599,32.25 0.2699,0.01 0.7999,0.05 1.0699,0.06 0.47,-0.06 1.41,-0.19 1.8801,-0.26 -0.6301,-7.83 -0.4202,-15.71 0.0199,-23.54 -4.67,-6.2401 -7.59,-13.56 -9.5499,-21.05 -2.1901,-6.5 -1.48,-13.45 -2.74,-20.11 1.1599,-1.26 2.33,-2.52 3.51,-3.77 -1.04,-1.28 -2.0701,-2.56 -3.1001,-3.8199 4.87,0.91 9.8501,1.11 14.79,0.83 1.8899,-0.08 3.74,-0.42 5.59,-0.8 4.6901,1.34 7.9601,5.14 12.1901,7.35 2.1499,6.1 8.3799,8.6 13.9199,10.72 3.8201,2 7.8301,3.62 11.91,5.03 2.85,0.26 5.7101,0.19 8.58,0.13 -0.1199,2.4301 -0.24,4.86 -0.36,7.3 0.4701,-0.04 1.42,-0.12 1.9,-0.17 0.37,-2.41 0.78,-4.82 1.22,-7.22 0.5,-0.01 1.51,-0.03 2.01,-0.04 2.4299,3.29 5.28,6.22 7.74,9.48 -0.6699,6.71 -0.8899,13.54 -3.1799,19.97 -0.48,2.03 -0.8301,4.08 -1.1901,6.13 1.17,0.97 2.42,1.86 3.6,2.84 -0.4861,2.5204 -0.6693,5.1485 -1.6882,7.5338 l 3.1743,0.6261 c 0.4491,-2.4598 0.9965,-4.9097 1.604,-7.3299 3.8479,1.7103 7.3785,4.0051 10.6923,6.5969 l 10.4572,0.2954 c -6.7122,-1.3066 -12.8687,-4.9745 -17.9094,-9.5723 -1.64,-1.2 -0.8,-3.34 -0.8,-5 0.8501,-7.7 0.5601,-16.4 5.87,-22.67 2.4301,0.45 4.7201,-0.51 6.89,-1.49 5.27,-0.07 10.52,-0.8 15.5801,-2.3 0.46,1.32 0.9099,2.64 1.4299,3.96 3.36,5.22 4.23,11.44 4.95,17.4901 0.6301,4.8799 -2.03,9.25 -4.3699,13.28 -1.5217,2.4068 -2.9165,5.0395 -5.2336,6.77 l 4.7399,-0.8089 c 3.2426,-5.7943 8.2896,-10.1843 12.3137,-15.3511 -0.1,-3.45 -0.92,-6.81 -1.4301,-10.2 -0.6399,-7.5699 1.73,-15.24 6.5601,-21.1 1.1,3.83 1.85,7.75 2.45,11.7 1.1101,1.4 2.23,2.8 3.3401,4.22 -0.98,1.23 -1.9501,2.45 -2.8901,3.7 1.4001,-0.74 2.8101,-1.48 4.2101,-2.23 1.46,1.65 2.62,3.52 3.5399,5.53 3.8901,7.28 5.1901,15.7401 4.4401,23.91 h 2.15 c 0.6599,-5.09 1.73,-10.11 2.79,-15.12 1.1099,-3.49 -1.78,-6.33 -2.8901,-9.38 -1.45,-2.75 -2.1699,-5.77 -2.6499,-8.81 -0.24,-1.25 -0.48,-2.49 -0.73,-3.72 l -0.3401,-0.73 c 0.0901,-4.33 0.67,-8.62 1.3701,-12.88 18.85251,6.10769 29.05017,2.71978 39.8,-12.81 1.48,-2.43 4.62,-1.9 7.03,-2.39 2.72,2.07 5.9,3.3 9.23,4.05 2.63,3.42 5.62,6.82 9.7101,8.5 5.5299,2.14 10.3198,5.94 16.1899,7.26 3.9399,1.37 8.1399,1.17 12.25,0.89 0.79,1.83 1.6,3.67 2.45,5.49 0.01,-1.97 0.03,-3.95 0.05,-5.91 0.83,0.96 1.6699,1.94 2.51,2.92 -0.4,1.97 -0.76,3.94 -1.04,5.94 -1.03,7.53 -3.7,14.72 -7.23,21.42 -0.78,4.79 0.12,9.89 -1.76,14.55 -0.5,1.61 -1.04,3.22 -1.6001,4.82 l 4.7401,0.64 c 0.22,-4.89 1.37,-9.74 3.49,-14.16 2.11,-4.43 2.83,-9.39 5.21,-13.71 2.33,-4.33 4.1901,-8.89 6.53,-13.21 1.47,-0.96 2.85,-2.04 4.39,-2.9 5.3899,1.14 5.6599,7.37 7.29,11.6 1.58,4.61 2.74,9.38 3.0699,14.26 0.13,2.89 1.63,5.42 2.5,8.12 1.34,3.96 1.42,8.18 1.5399,12.32 0.4301,0.03 1.29,0.09 1.7201,0.13 0.72,1.27 1.46,2.55 2.2001,3.83 9.95,-0.06 19.7499,2.3 29.71,1.7599 2.25,0.1201 4.1799,-1.23 6.34,-1.61 3.1,0.97 5.96,2.89 9.3199,2.95 3.6001,0.16 7.1001,1.06 10.65,1.67 3.23,0.08 5.97,-2.06 8.5701,-3.72 C 1078.55,622.76 1079.02,613.06 1080.51,603.96 Z m -407.87,18.59 c -4.85,0.18 -9.7,-0.13 -14.55,-0.27 -0.1801,-0.54 -0.55,-1.63 -0.73,-2.17 l -0.21,-0.58 c -0.95,-0.46 -1.9,-0.89 -2.84,-1.29 -2.36,-4.12 -3.83,-8.69 -4.8,-13.31 -0.81,-4.68 1.18,-9.55 4.75,-12.61 4.41,-3.93 8.71,-8.32 14.28,-10.57 1.55,7.35 3.1,14.86 2.39,22.41 -0.28,2.97 1.16,5.69 1.93,8.48 0.54,3.29 0.23,6.62 -0.22,9.91 z m 14.06,-91.86 c -1.88,-0.78 -3.75,-1.53 -5.69,-2.06 0.76,-0.51 1.53,-1.01 2.3,-1.51 1.1,1.21 2.26,2.37 3.39,3.57 z m -5.36,-8.51 c 1.86,-0.73 2.41,2.34 0.5699,2.63 -1.8299,0.6 -2.3299,-2.3 -0.5699,-2.63 z m 34.05,68.74 c -0.9701,6.26 -1.25,12.73 -3.88,18.6 -2.5701,5.75 -5.5901,11.5 -10.08,16 -1.08,0.3 -2.14,0.6 -3.21,0.88 -5.0099,0.33 -10.04,0.29 -15.06,0.03 -2.14,-1.32 -4.41,-2.4 -6.67,-3.48 -0.06,-1.43 -0.1,-2.85 -0.12,-4.27 -0.43,-5.7 2.69,-11.08 1.63,-16.76 -1.15,-7.34 -0.99,-14.82 -0.33,-22.2 2.94,-0.15 5.92,-0.31 8.75,-1.24 5.27,-1.64 10.87,-1.6 16.18,-3.11 4.61,-0.97 8.58,-3.95 13.37,-4.25 -0.8899,1.95 -2.24,3.77 -2.5601,5.94 -0.0798,4.72 2.8101,9.1 1.9801,13.86 z m 23.62,-37.62 c -1.46,0.43 -2.63,-2.82 -0.86,-3.06 1.31,0.2 1.73,2.16 0.86,3.06 z m 78.76,-14.16 c 1.1899,-0.88 1.87,-0.61 2.03,0.81 -1.2,0.87 -1.8801,0.6 -2.03,-0.81 z m 5.5501,47.26 c -0.67,0.68 -1.3201,1.39 -1.9501,2.1 0.63,-0.71 1.28,-1.42 1.9501,-2.1 0.75,-0.04 1.51,-0.08 2.2799,-0.1 -0.0199,-0.94 -0.0399,-1.87 -0.0399,-2.79 0.5599,-0.365 1.1274,-0.7263 1.6899,-1.09 -0.5625,0.3638 -1.13,0.725 -1.6899,1.09 0,0.92 0.02,1.85 0.0399,2.79 -0.7699,0.02 -1.5299,0.06 -2.2799,0.1 z m 5.6198,-5.07 v 0 c 0.2351,0.13 0.5925,0.325 0.9513,0.52 -0.3587,-0.195 -0.7162,-0.39 -0.9513,-0.52 z m 30.5547,1.1203 c 0.1272,-0.0721 0.2429,-0.1378 0.3354,-0.1903 v 0 c -0.0925,0.0525 -0.2082,0.1182 -0.3354,0.1903 z M 864.45,596.83 c -0.29,-1.66 -0.5699,-3.32 -0.8199,-4.97 -0.4401,1.33 -0.89,2.65 -1.3099,3.99 v -10e-5 c 0.4199,-1.3399 0.8699,-2.6599 1.3099,-3.9899 0.25,1.65 0.5299,3.3099 0.8199,4.9699 z m -1.83,-51.15 c -0.66,-2.4 -1.27,-4.84 -1.65,-7.3 1.97,2.22 4.48,4.29 5.14,7.35 -1.1701,-0.02 -2.34,-0.03 -3.49,-0.05 z m 143.48,-16.86 c -2.1,-1.82 -4.1801,-3.65 -6.2999,-5.42 3.29,-0.52 6.59,-1.08 9.9399,-1.06 -1.11,2.21 -2.3101,4.39 -3.64,6.48 z m 47.01,97.87 c -0.2,0.53 -0.61,1.6 -0.8099,2.13 -11.6001,0.23 -23.12,-1.22 -34.6401,-2.33 -1.8499,-7.46 -0.9399,-15.09 -0.99,-22.65 -1.2899,-3.63 -2.3599,-7.35 -2.8599,-11.17 -0.4601,-3.27 -0.6201,-6.57 -0.51,-9.86 7.7,-0.42 15.2999,-1.9 22.99,-2.43 3.0599,-1.98 8.88,-5.26 10.95,-0.46 -0.59,2.77 -1.25,5.74 0.92,8.04 1.88,3.28 5.15,5.7599 6.0299,9.57 1.0801,4.14 2.64,8.2 3.02,12.49 -0.11,5.77 -2,11.35 -4.1,16.67 z m 23.66,5.31 c -7.1801,-0.58 -14.29,-1.83 -21.46,-2.46 2.58,-6.62 6.7,-12.42 10.1799,-18.55 -0.54,-3.35 -1.98,-6.47 -2.84,-9.73 -0.65,-2.41 -1.0701,-4.88 -1.37,-7.34 2.74,1 4.9099,2.99 6.5499,5.38 7.3002,9.01 10.6802,21.22 8.9402,32.7 z"
           id="path3463"
           style="display:inline"
           sodipodi:nodetypes="ccccccccccccccccccccccccccccccccccccccccccccccccccccccccccccccccccsscccccccccccccccccccccccccccccccccccccccccccccccccccccccccccccccccccccccccccccccccccccccccccccccccccccccccccccccccccccccccccccccccccccccccccccccccccccccccccccccccccccccccccccccccccccccccccccccccccccccccccsscscsscscsscssccccccccccccccccccccccccccc" />
      </g>
      <path
         d="m 0,612.43 c 261.9868,32.6262 554.5719,16.6633 862.5541,5.629 30.5989,-1.0963 61.2439,-0.6052 91.7919,1.4719 C 1315.2881,644.0726 1647.3384,690.41 1920,690.41 V 1280 H 0 Z"
         id="path3467" />
    </g>
    <path
       style="fill:#030102;fill-opacity:1;stroke-width:0.264583"
       id="path1190"
       d="m 1.6280262,124.9088 c -0.02893,0.0407 -0.062241,0.0789 -0.098774,0.11295 -0.014501,0.0114 -0.027059,0.0255 -0.041853,0.0365 -0.013081,0.01 -0.02759,0.0172 -0.040644,0.0271 -0.020769,0.0197 -0.045082,0.0352 -0.065139,0.0556 -0.019391,0.0153 -0.032977,0.0361 -0.049408,0.0542 -0.023257,0.0241 -0.047965,0.0466 -0.072272,0.0696 -0.026348,0.0196 -0.05087,0.0414 -0.073435,0.0653 -0.018691,0.0218 -0.041939,0.0386 -0.063375,0.0574 -0.041739,0.0336 -0.16826834,0.10369 0.032248,-0.013 -0.023554,0.0132 -0.047673,0.0254 -0.072008,0.0371 -0.02706,0.0141 -0.05337,0.0285 -0.082157,0.0389 -0.0366059,0.0133 -0.0741277,0.0237 -0.11079385,0.0368 -0.0249838,0.009 -0.0492833,0.0206 -0.07386,0.0311 -0.019989,0.008 -0.0391094,0.0175 -0.0587396,0.0261 -0.0199252,0.008 -0.0404741,0.0152 -0.060444,0.0235 -0.0217763,0.0111 -0.0449204,0.0185 -0.06806,0.026 -0.0249462,0.008 -0.0496852,0.0173 -0.0742869,0.0266 -0.0311897,0.0106 -0.0619079,0.0228 -0.0935901,0.0319 -0.0228629,0.007 -0.0456294,0.0139 -0.0686548,0.0201 -0.0171011,0.003 -0.0335516,0.008 -0.0500795,0.0126 -0.0180366,0.005 -0.0368762,0.005 -0.0553065,0.008 -0.0281584,0.003 -0.0557564,0.01 -0.0836737,0.0146 -0.0199647,0.002 -0.0389767,0.008 -0.0584239,0.0126 -0.0136615,0.001 -0.0261378,0.007 -0.0392056,0.0106 -0.009998,0.003 -0.02032042,0.004 -0.03062766,0.004 -0.0077931,0.001 -0.01438928,-0.002 -0.02170514,-0.004 0,0 -0.10900244,0.0747 -0.10900244,0.0747 v 0 c 0.0082325,0.002 0.01576367,0.007 0.02396078,0.007 0.01080587,-4e-5 0.02165762,-1.6e-4 0.03235464,-0.002 0.01359873,-0.002 0.02582329,-0.008 0.03904078,-0.0111 0.01987475,-0.003 0.03861118,-0.0108 0.0585674,-0.0132 0.02805308,-0.004 0.05542973,-0.0114 0.0836333,-0.0145 0.0186368,-0.003 0.0370013,-0.005 0.05577,-0.007 0.0169039,-0.004 0.0325295,-0.0119 0.0501148,-0.013 0.0233397,-0.005 0.0462476,-0.0126 0.0689957,-0.0201 0.0322437,-0.008 0.0629003,-0.0207 0.0943637,-0.0311 0.0248214,-0.008 0.0488908,-0.0186 0.0737596,-0.0268 0.0233061,-0.007 0.0471754,-0.0134 0.0686832,-0.0252 0.0201298,-0.008 0.0398148,-0.0169 0.06065,-0.0229 0.0193675,-0.009 0.0389994,-0.0179 0.0585934,-0.0267 0.0249502,-0.01 0.0490781,-0.0215 0.0738786,-0.0316 0.0362118,-0.0146 0.0742062,-0.0238 0.11077628,-0.0374 0.0293549,-0.009 0.0564096,-0.0211 0.0824968,-0.0374 0.0248925,-0.0108 0.0488543,-0.0237 0.0727449,-0.0365 0.064497,-0.0371 0.1336346,-0.0709 0.1916287,-0.11869 0.022154,-0.0183 0.043702,-0.0372 0.063,-0.0586 0.0231,-0.0231 0.048395,-0.0437 0.073398,-0.0646 0.024548,-0.0231 0.04948,-0.0459 0.072072,-0.0709 0.015438,-0.0188 0.031462,-0.0372 0.049942,-0.053 0.021229,-0.0187 0.0438,-0.0359 0.065635,-0.0539 0.028688,-0.0198 0.056902,-0.0399 0.081286,-0.0651 0.035733,-0.0358 0.069299,-0.0741 0.098258,-0.11562 0,0 -0.1203321,0.0525 -0.1203321,0.0525 z" />
    <path
       style="fill:#030102;fill-opacity:1;stroke-width:0.264583"
       id="path1480"
       d="m -0.05004576,127.80029 c 0.0088644,0.007 0.01776166,0.0144 0.02716914,0.021 0.01190186,0.009 0.02546992,0.0159 0.03868013,0.023 0.01555896,0.008 0.03120056,0.0154 0.0464203,0.0238 0.01427131,0.008 0.0284317,0.0154 0.04241461,0.0235 0.0133492,0.008 0.0274457,0.0149 0.0418934,0.0209 0.0154412,0.006 0.0307094,0.0124 0.0462639,0.0181 0.0126158,0.004 0.0252948,0.008 0.037833,0.0129 0.0107606,0.004 0.02143,0.007 0.0319952,0.0115 0.0158579,0.008 0.0330424,0.0118 0.0499939,0.0163 0.0353117,0.0106 0.0699285,0.0234 0.10476452,0.0354 0.0184944,0.006 0.0373761,0.0116 0.0561929,0.0169 0.0108598,0.003 0.0218284,0.006 0.03294,0.009 0.0172874,0.003 0.0341007,0.007 0.050846,0.0122 0.0168309,0.005 0.0339583,0.008 0.0511947,0.0114 0.012687,0.002 0.0255863,0.003 0.0384023,0.005 0.0125542,10e-4 0.0250669,0.003 0.0376001,0.004 0.0162425,0.003 0.0326264,0.004 0.0489872,0.006 0.0175353,0.001 0.0350573,0.003 0.0524871,0.005 0.012518,0.002 0.0251195,0.003 0.0377519,0.004 0.0100486,2.6e-4 0.0199975,0.002 0.0300159,0.003 0.0114681,0.002 0.0229926,0.003 0.0344836,0.004 0.0127646,0.002 0.0254188,0.004 0.0380746,0.006 0.011467,0.001 0.0230047,0.002 0.0345179,0.003 0.0107082,8e-4 0.0209791,0.004 0.0315407,0.006 0.0145521,0.002 0.0290669,0.004 0.0435215,0.007 0.010229,0.002 0.020407,0.005 0.030837,0.006 0.00756,0.002 0.01509,0.003 0.02283,0.003 0.011413,0.001 0.022596,0.003 0.033652,0.006 0.010612,0.003 0.021362,0.005 0.03215,0.007 0.011318,0.002 0.022395,0.004 0.033566,0.006 0.00902,0.002 0.018017,0.003 0.026971,0.005 0.00795,0.002 0.016091,0.002 0.024141,0.004 0.008,0.002 0.016173,0.002 0.024276,0.002 0.010353,5.3e-4 0.020597,0.002 0.030686,0.005 0.010121,0.002 0.020438,0.004 0.030619,0.006 0.011554,0.002 0.02323,0.004 0.034859,0.005 0.00713,7.9e-4 0.014137,0.002 0.021164,0.003 0.00557,7.9e-4 0.01126,0.002 0.016896,0.002 0.0081,0.001 0.016205,0.002 0.024294,0.003 0.00876,0.001 0.017447,0.003 0.025955,0.005 0.00481,0.002 0.00998,0.002 0.014941,0.003 0.00504,10e-4 0.010175,0.002 0.015366,0.003 0.00467,7.9e-4 0.00942,-1.3e-4 0.014054,2.6e-4 0.00475,8e-4 0.00946,0.002 0.014247,0.002 0.00521,5.2e-4 0.010456,2.6e-4 0.015683,5.2e-4 0.00516,-1e-5 0.010321,2.7e-4 0.01545,-2.6e-4 0.00908,0.001 0.018173,0.002 0.027321,0.002 0.0092,2.5e-4 0.018398,5.3e-4 0.027596,7.9e-4 0.00473,-2.6e-4 0.00931,0.001 0.01404,0.001 0.00789,7.9e-4 0.015617,0.003 0.023291,0.005 0.00711,0.002 0.014389,0.003 0.021636,0.005 0.00576,0.002 0.011653,0.003 0.017328,0.005 0.00465,0.002 0.00954,0.003 0.014503,0.003 0.00615,-2.3e-4 0.01207,2.7e-4 0.018184,10e-4 0.00496,8e-4 0.00996,8e-4 0.014906,0.002 0,0 0.1068314,-0.0749 0.1068314,-0.0749 v 0 c -0.00513,-0.001 -0.010152,-0.002 -0.015425,-0.002 -0.00342,-2.6e-4 -0.00685,-5.3e-4 -0.010179,-0.002 -0.00109,-2.7e-4 -0.00211,-8e-4 -0.00322,-0.001 -9.47e-5,-2e-5 -0.00453,4e-5 -0.00469,4e-5 -0.00423,8e-5 -0.00852,2.7e-4 -0.012713,-2.6e-4 -0.00282,-5.3e-4 -0.0053,-0.002 -0.00806,-0.003 -0.00324,-7.9e-4 -0.00681,-7.9e-4 -0.00993,-0.002 -0.0072,-0.003 -0.014621,-0.004 -0.022187,-0.005 -0.0078,-0.002 -0.015477,-0.004 -0.023285,-0.006 -0.00497,-0.002 -0.010296,-0.001 -0.015403,-0.003 -0.00946,2.6e-4 -0.018931,5.3e-4 -0.028395,2.1e-4 -0.00852,-2.6e-4 -0.017127,-5.3e-4 -0.025484,-0.002 -0.00529,-0.002 -0.010696,-0.001 -0.016179,-0.001 -0.00498,5e-5 -0.00995,0 -0.014925,3e-5 -0.00458,3e-5 -0.00917,-8e-5 -0.013667,-0.001 -0.0019,-5.3e-4 -0.00371,-0.001 -0.00563,-0.002 -0.00296,-5.2e-4 -0.00621,5.3e-4 -0.00919,8e-5 -0.00468,3e-5 -0.0094,5e-5 -0.014008,-7.9e-4 -0.00171,-5.3e-4 -0.0033,-10e-4 -0.00503,-0.002 -0.00335,-8e-4 -0.00721,5.3e-4 -0.010527,-8e-4 -0.00913,-0.002 -0.018125,-0.004 -0.027311,-0.006 -0.00776,-0.001 -0.015383,-0.003 -0.023086,-0.004 -0.00552,-0.002 -0.011394,-5.2e-4 -0.017153,-0.001 -0.00757,-7.9e-4 -0.014836,-0.003 -0.022536,-0.003 -0.011533,-0.001 -0.022877,-0.003 -0.034332,-0.005 -0.00998,-0.002 -0.019853,-0.005 -0.029984,-0.006 -0.010452,-0.002 -0.020926,-0.005 -0.031578,-0.006 -0.00306,-5.3e-4 -0.00607,-0.001 -0.00913,-0.002 -0.00481,-5.3e-4 -0.00981,1.4e-4 -0.014604,-8e-4 -0.008,-0.001 -0.015803,-0.003 -0.023894,-0.003 -0.00923,-0.002 -0.018308,-0.004 -0.027496,-0.006 -0.011412,-0.001 -0.022565,-0.004 -0.033852,-0.006 -0.010633,-0.002 -0.021176,-0.004 -0.031551,-0.007 -0.011393,-0.002 -0.022537,-0.006 -0.034041,-0.007 -0.00735,-0.002 -0.014952,-0.001 -0.02232,-0.003 -0.010584,-0.002 -0.021668,-0.002 -0.032181,-0.004 -0.014166,-0.003 -0.028489,-0.005 -0.04271,-0.008 -0.00513,-0.001 -0.010291,-0.002 -0.015415,-0.003 -0.00375,-7.9e-4 -0.00741,-0.002 -0.011159,-0.003 -0.00197,-5.2e-4 -0.00397,-5.2e-4 -0.00596,-0.001 -0.011288,-8e-4 -0.02243,-0.003 -0.033722,-0.003 -0.012973,-0.001 -0.025758,-0.004 -0.0386755,-0.006 -0.0111712,-0.002 -0.0224237,-0.003 -0.0337016,-0.005 -0.01025,-0.002 -0.0208124,-0.001 -0.0310926,-0.003 -0.0127606,-1.2e-4 -0.0255275,-5.3e-4 -0.0382191,-0.002 -0.0176908,-0.002 -0.0354126,-0.004 -0.0531599,-0.005 -0.0160152,-10e-4 -0.0319776,-0.003 -0.0478933,-0.006 -0.0122592,-0.002 -0.0246536,-0.004 -0.0370774,-0.005 -0.003939,-5.3e-4 -0.007856,-0.001 -0.0118084,-0.001 -0.009073,-7.9e-4 -0.0182613,-2.6e-4 -0.027274,-0.002 -0.017294,-0.002 -0.0345351,-0.005 -0.0515334,-0.009 -0.0164529,-0.004 -0.0323542,-0.0105 -0.048835,-0.0147 -0.0113773,-0.002 -0.0227809,-0.004 -0.0339063,-0.007 -0.0198218,-0.004 -0.0393914,-0.009 -0.0590722,-0.014 -0.0355676,-0.01 -0.0715113,-0.0191 -0.10526389,-0.0344 -0.0147219,-0.007 -0.0297227,-0.0132 -0.0447732,-0.0194 -0.0106947,-0.004 -0.0213704,-0.009 -0.0323081,-0.0123 -0.012922,-0.004 -0.0256127,-0.008 -0.0385893,-0.0118 -0.0155173,-0.006 -0.0310931,-0.0109 -0.0462891,-0.0173 -0.0138757,-0.006 -0.0275926,-0.0123 -0.0406531,-0.0198 -0.0142166,-0.008 -0.0286404,-0.0158 -0.0430185,-0.0236 -0.0153604,-0.008 -0.0306239,-0.0162 -0.0460631,-0.024 -0.0126314,-0.007 -0.02563725,-0.0131 -0.0370899,-0.0219 -0.0083803,-0.007 -0.01774294,-0.0123 -0.02409786,-0.021 0,0 -0.11172029,0.0688 -0.11172029,0.0688 z" />
    <path
       style="fill:#030102;fill-opacity:1;stroke-width:0.0110485"
       d="M -5.8734057e-6,483.80314 0,483.16632 l 0.1850631,0.0986 c 0.37136067,0.19782 0.57304285,0.28203 0.975034,0.40708 0.075959,0.0236 0.2027407,0.0651 0.2817378,0.0922 0.2173757,0.0745 0.3426757,0.11101 0.5912195,0.17233 0.2496677,0.0616 0.389121,0.0819 0.9555766,0.13919 0.1646117,0.0166 0.2338015,0.0247 0.569,0.0663 0.069882,0.009 0.1842345,0.0261 0.2541165,0.0387 0.069882,0.0126 0.1742908,0.0304 0.2320194,0.0396 0.057729,0.009 0.1646233,0.0288 0.2375437,0.0436 0.07292,0.0148 0.1698713,0.0339 0.2154466,0.0425 0.081998,0.0154 0.082287,0.0156 0.027621,0.0166 -0.030384,5.8e-4 -0.6145752,0.0158 -1.2982038,0.0339 -1.5711905,0.0415 -2.0656561,0.0544 -2.70966117,0.0703 l -0.516525275707,0.0128 z"
       id="path1551"
       transform="scale(0.26458333)" />
    <path
       style="fill:#030102;fill-opacity:1;stroke-width:0.264583"
       id="path1553"
       d="m 1.3657006,128.20315 c -0.042569,-0.008 -0.084038,-0.0211 -0.1244217,-0.0366 -0.035188,-0.012 -0.065277,-0.0337 -0.096875,-0.0525 -0.029047,-0.0161 -0.051661,-0.0186 -0.084004,-0.0149 -0.023259,0.003 -0.045726,0.009 -0.0679572,0.0164 -0.031966,0.0118 -0.065566,0.0151 -0.0992848,0.0173 -0.0307248,0.002 -0.0614165,0.002 -0.0920666,-0.001 -0.0191778,-0.002 -0.0383964,-0.003 -0.0576327,-0.004 -0.0148346,-2.6e-4 -0.0296739,-2.6e-4 -0.0445112,-5.3e-4 -0.011013,-1.6e-4 -0.0220218,-1.4e-4 -0.0330329,1e-4 -0.0313,0.001 -0.0625919,-5.2e-4 -0.0938272,-0.002 -0.02041,-0.001 -0.0408099,-0.003 -0.0612574,-0.003 -0.0130696,-2.6e-4 -0.0261437,-2.6e-4 -0.0392164,-2.6e-4 -0.0162425,-5.3e-4 -0.0323283,5.3e-4 -0.048446,0.002 -0.0315994,0.005 -0.0631736,8e-4 -0.0946776,-0.002 -0.0308108,-0.002 -0.061433,-0.006 -0.0920586,-0.01 -0.0156802,-0.002 -0.0314737,-0.003 -0.0472884,-0.004 -0.0160686,-7.9e-4 -0.0319209,0.002 -0.0476327,0.005 -0.0195678,0.005 -0.0392701,0.008 -0.0591836,0.011 -0.01581049,0.002 -0.03135104,0.006 -0.04693167,0.009 -0.0091766,0.003 -0.01833262,0.006 -0.02789774,0.007 -0.00133816,1.4e-4 -0.00267633,2.6e-4 -0.0040145,5.3e-4 0,0 -0.10569182,0.0779 -0.10569182,0.0779 v 0 c 0.00144,-5e-5 0.0028803,-9e-5 0.0043205,-1.4e-4 0.01020339,-5.3e-4 0.02039675,-0.002 0.02992727,-0.006 0.01475708,-0.006 0.03104782,-0.008 0.04663762,-0.011 0.01966174,-0.004 0.04000148,-0.005 0.05927197,-0.011 0.01508442,-0.003 0.03023377,-0.006 0.04552961,-0.007 0.01589953,6e-5 0.0318076,2.7e-4 0.04765426,0.002 0.0313177,0.003 0.0625231,0.007 0.0939135,0.009 0.031277,0.003 0.0625543,0.009 0.0941062,0.006 0.0156573,-10e-4 0.0311132,-0.004 0.0468725,-0.003 0.0130844,1e-5 0.0261684,2e-5 0.039253,-4e-5 0.0211264,7e-5 0.0422539,5.3e-4 0.063365,0.001 0.0306091,0.001 0.0611244,0.004 0.0917522,0.005 0.0109448,2.5e-4 0.0218866,2.1e-4 0.0328331,4e-5 0.0148743,-1.5e-4 0.0297493,-2.6e-4 0.0446234,1e-5 0.0194503,2e-4 0.0388984,7.9e-4 0.0582878,0.002 0.0318462,0.002 0.0635625,0.003 0.0954752,5.3e-4 0.0332609,-0.001 0.0671112,-0.002 0.0988154,-0.0131 0.0222657,-0.006 0.04396,-0.0148 0.0670148,-0.0181 0.0298909,-0.005 0.0516373,-0.007 0.0797652,0.007 0.033215,0.0181 0.063596,0.0415 0.1003416,0.0526 0.039799,0.015 0.080294,0.0277 0.1203656,0.0418 0,0 0.1077837,-0.075 0.1077837,-0.075 z" />
    <path
       style="fill:#030102;fill-opacity:1;stroke-width:0.264583"
       id="path1555"
       d="m 1.3763892,128.223 c -0.019716,-0.009 -0.03711,-0.0227 -0.054719,-0.0354 -0.01835,-0.0123 -0.038543,-0.0214 -0.05793,-0.0319 -0.020875,-0.0122 -0.041776,-0.024 -0.064279,-0.033 -0.022125,-0.007 -0.044866,-0.0128 -0.067932,-0.0164 -0.013052,-0.002 -0.025954,-0.005 -0.039174,-0.007 -0.013684,-0.001 -0.027423,-0.001 -0.041117,-0.002 -0.01778,-0.002 -0.035571,-0.003 -0.0534112,-0.004 -0.0139359,-5.3e-4 -0.0278791,-7.9e-4 -0.041822,-5.3e-4 -0.0159493,2.3e-4 -0.0319009,1e-4 -0.0478505,-2e-5 -0.009759,4e-5 -0.0195289,-5.2e-4 -0.0292842,-5e-5 -0.00817,-0.001 -0.0161674,-0.003 -0.0240853,-0.005 -0.0121801,-0.005 -0.0238384,-0.0117 -0.0363138,-0.0164 -0.0122722,-0.005 -0.0246782,-0.009 -0.0369546,-0.0134 -0.0108688,-0.003 -0.0211693,-0.007 -0.0315265,-0.0107 -0.0128291,-0.005 -0.026125,-0.008 -0.0393967,-0.0108 -0.002913,-5.3e-4 -0.005825,-10e-4 -0.008738,-0.002 -0.002357,-5.3e-4 -0.004716,-8e-4 -0.00707,-0.001 -0.0174784,-0.004 0.0111998,8e-4 1.9093e-4,0.009 -0.0346709,0.0252 -0.0737353,0.0437 -0.11060285,0.0655 0.001865,-2.5e-4 0.003714,-7.9e-4 0.005597,-7.9e-4 0.007592,-1e-4 0.0151545,0.001 0.0227386,0.001 0.0176935,7.9e-4 0.0354168,10e-4 0.0531199,0.002 0.0292385,0.002 0.0586098,1.4e-4 0.0877197,0.004 0.0207449,0.003 0.041072,0.008 0.0615218,0.0129 0.0118364,0.002 0.0221377,0.008 0.0320751,0.0147 0.008958,0.006 0.0187182,0.0115 0.0279408,0.0174 -0.0308123,-0.031 1.762e-5,5.3e-4 0.10508181,-0.0735 0.001609,-0.001 -0.003543,0.002 -0.00546,0.002 -0.002949,8e-4 -0.005997,8e-4 -0.009013,10e-4 -0.006942,5.3e-4 -0.0157229,7.9e-4 -0.0226309,0.001 -0.023925,0.002 -0.0474382,-0.002 -0.0704829,-0.008 -0.0236522,-0.006 -0.0468596,-0.0142 -0.0699055,-0.0224 -0.0160435,-0.006 -0.0319373,-0.0118 -0.04858,-0.0156 -0.0147976,-0.002 -0.0294858,-0.005 -0.0443726,-0.007 -0.0144727,-0.002 -0.0290491,-0.002 -0.0435943,-0.002 -0.0158993,-6e-5 -0.0317969,1.3e-4 -0.0476961,1e-4 -0.0127542,7.9e-4 -0.0247184,-5.3e-4 -0.0368573,-0.004 -0.0156512,-0.009 -0.0301193,-0.0193 -0.0457265,-0.0283 -0.020062,-0.0122 -0.0400607,-0.0247 -0.0592017,-0.0383 -0.009166,-0.006 -0.016918,-0.0134 -0.0246994,-0.0209 -0.006737,-0.006 -0.0149606,-0.01 -0.023123,-0.0135 -0.009657,-0.003 -0.0189055,-0.007 -0.0283831,-0.01 -0.0288695,-0.009 -0.0574103,-0.019 -0.0858539,-0.0292 -0.0265439,-0.01 -0.0530039,-0.0197 -0.0802807,-0.0272 -0.009752,-0.003 -0.0199934,-0.003 -0.0300261,-0.004 -0.0107589,-0.002 -0.021753,-0.002 -0.0324734,-0.004 -0.0163152,-0.003 -0.0322284,-0.008 -0.0474967,-0.0146 -0.0174616,-0.008 -0.03495668,-0.0165 -0.05238704,-0.0249 -0.01469869,-0.007 -0.02904991,-0.0147 -0.04395844,-0.0213 -0.01075866,-0.005 -0.02131394,-0.009 -0.03276647,-0.012 -0.01041409,-0.003 -0.02108808,-0.004 -0.03129321,-0.008 -0.0083888,-0.004 -0.01746266,-0.007 -0.02655837,-0.01 -0.0078271,-0.002 -0.0040786,-0.001 -0.01124239,-0.002 0,0 -0.107596,0.0746 -0.107596,0.0746 v 0 c 0.007405,0.002 0.003653,0.001 0.01126,0.002 0.008539,0.002 0.0168379,0.004 0.0247952,0.008 0.0103713,0.005 0.021611,0.007 0.0329468,0.009 0.005168,0.002 0.0104868,0.002 0.01556406,0.004 0.0077901,0.003 0.0019796,10e-4 0.01035261,0.004 0.0019526,7.9e-4 0.0039844,0.001 0.0059766,0.002 0.01500878,0.006 0.02965942,0.0129 0.04402703,0.0205 0.01753813,0.009 0.03549892,0.0163 0.0532121,0.0246 0.01528387,0.008 0.03091586,0.0145 0.04777162,0.0178 0.004157,10e-4 0.008195,0.003 0.01241269,0.003 0.0066491,10e-4 0.01376521,1.4e-4 0.02037874,0.002 0.0034305,5.3e-4 0.0067911,0.002 0.01025094,0.002 0.006523,7.9e-4 0.0133475,-8e-4 0.0198305,7.9e-4 0.0284071,0.005 0.0559082,0.0135 0.082984,0.0231 0.0275354,0.0104 0.0548049,0.0215 0.0820829,0.0325 0.009544,0.003 0.0182023,0.008 0.0276687,0.01 0.007269,0.002 0.0138499,0.006 0.0203607,0.009 0.008777,0.007 0.0163457,0.0161 0.0265109,0.0216 0.0196697,0.0137 0.041339,0.0243 0.060966,0.038 0.0153741,0.0102 0.0305302,0.0205 0.0453697,0.0315 0.0129495,0.006 0.0256403,0.009 0.0399751,0.008 0.0157496,-6e-5 0.0314981,5e-5 0.0472476,9e-5 0.0143703,-2e-5 0.0287549,-3e-5 0.0430999,0.001 0.0147341,0.001 0.029097,0.004 0.0436408,0.006 0.0168071,0.002 0.0325194,0.008 0.0485363,0.0134 0.0234834,0.008 0.0467443,0.0159 0.0703421,0.0232 0.0237601,0.006 0.047929,0.0121 0.0727117,0.0111 0.0400166,-7e-5 0.21092044,0.01 0.14672456,-0.0781 -0.009492,-0.006 -0.0194781,-0.0103 -0.0284487,-0.0168 -0.0112945,-0.007 -0.0219631,-0.0154 -0.0353282,-0.0184 -0.0211307,-0.004 -0.0418232,-0.009 -0.0629941,-0.0127 -0.029696,-0.005 -0.0597598,-0.003 -0.0897723,-0.004 -0.0262348,-7.9e-4 -0.053221,-5.2e-4 -0.0788502,-0.007 -0.043401,0.0247 -0.14445713,0.0307 -0.11054453,0.0771 0.002347,0.003 0.0203726,0.002 0.024062,0.004 0.0127868,0.003 0.0254585,0.006 0.037908,0.01 0.0106325,0.003 0.0203745,0.009 0.0314991,0.0109 0.0125259,0.004 0.0248581,0.008 0.0372685,0.0125 0.0122589,0.005 0.0244904,0.01 0.0355747,0.0168 0.00816,0.004 0.0167698,0.006 0.0256233,0.008 0.0100015,0.003 0.0207219,7.9e-4 0.0310635,0.001 0.0159888,-1.3e-4 0.0319795,-2.6e-4 0.0479682,-8e-5 0.0138427,1.9e-4 0.0276882,-1.4e-4 0.0415302,2.1e-4 0.0177906,2.6e-4 0.0355876,0.001 0.0532718,0.003 0.0135475,0.002 0.0269045,0.003 0.0406205,0.003 0.0134194,8e-4 0.0266016,0.003 0.0396706,0.006 0.022827,0.002 0.045172,0.007 0.067178,0.0132 0.022366,0.008 0.042349,0.0194 0.062175,0.0322 0.018998,0.0105 0.03956,0.0181 0.057723,0.0301 0.017754,0.0128 0.035204,0.0261 0.053896,0.0375 0,0 0.1097877,-0.0713 0.1097877,-0.0713 z" />
  </g>
</svg>
