<?xml version="1.0" encoding="UTF-8" standalone="no"?>
<!-- Created with Inkscape (http://www.inkscape.org/) -->

<svg
   width="30.48mm"
   height="128.5mm"
   viewBox="0 0 30.48 128.5"
   version="1.1"
   id="svg2744"
   inkscape:version="1.2.1 (9c6d41e410, 2022-07-14, custom)"
   sodipodi:docname="6hp.svg"
   inkscape:export-filename="/home/ryan/git/vendor/enigmacurry/EnigmaCurry-vcv-pack/res/3hp.png"
   inkscape:export-xdpi="96"
   inkscape:export-ydpi="96"
   xmlns:inkscape="http://www.inkscape.org/namespaces/inkscape"
   xmlns:sodipodi="http://sodipodi.sourceforge.net/DTD/sodipodi-0.dtd"
   xmlns:xlink="http://www.w3.org/1999/xlink"
   xmlns="http://www.w3.org/2000/svg"
   xmlns:svg="http://www.w3.org/2000/svg">
  <sodipodi:namedview
     id="namedview2746"
     pagecolor="#ffffff"
     bordercolor="#666666"
     borderopacity="1.0"
     inkscape:pageshadow="2"
     inkscape:pageopacity="0"
     inkscape:pagecheckerboard="false"
     inkscape:document-units="mm"
     showgrid="false"
     showborder="true"
     inkscape:showpageshadow="false"
     height="128.5mm"
     inkscape:zoom="4.3994185"
     inkscape:cx="122.28889"
     inkscape:cy="95.012558"
     inkscape:window-width="2556"
     inkscape:window-height="1401"
     inkscape:window-x="0"
     inkscape:window-y="127"
     inkscape:window-maximized="1"
     inkscape:current-layer="layer1"
     inkscape:deskcolor="#d1d1d1"
     showguides="true">
    <sodipodi:guide
       position="9.0210788,2.5657408"
       orientation="0,-1"
       id="guide1298"
       inkscape:locked="false" />
    <sodipodi:guide
       position="42.483248,0.79510357"
       orientation="0,-1"
       id="guide1582"
       inkscape:locked="false" />
  </sodipodi:namedview>
  <defs
     id="defs2741">
    <linearGradient
       inkscape:collect="always"
       id="linearGradient3196">
      <stop
         style="stop-color:#483737;stop-opacity:1;"
         offset="0"
         id="stop3192" />
      <stop
         style="stop-color:#f6ffd5;stop-opacity:1"
         offset="1"
         id="stop3194" />
    </linearGradient>
    <linearGradient
       inkscape:collect="always"
       xlink:href="#linearGradient3196"
       id="linearGradient3198"
       x1="8.4236994"
       y1="32.300278"
       x2="8.5789099"
       y2="105.16194"
       gradientUnits="userSpaceOnUse"
       gradientTransform="scale(3.3333334,1)" />
  </defs>
  <g
     inkscape:label="Layer 1"
     inkscape:groupmode="layer"
     id="layer1">
    <rect
       style="fill:url(#linearGradient3198);fill-opacity:1;stroke-width:0.48306"
       id="rect2880"
       width="50.799999"
       height="128.5"
       x="0"
       y="0" />
    <path
       fill="#030102"
       d="m 28.921123,125.59575 c -0.04232,-0.13638 -0.18915,-0.21628 -0.284589,-0.32294 0.02505,-0.0509 0.08723,-0.0918 0.09371,-0.14716 -0.03627,-0.0914 -0.103212,-0.1702 -0.158057,-0.25345 -0.133441,-0.0145 -0.259973,0.0182 -0.367071,0.0862 0.0108,0.19362 0.05053,0.39838 -0.04794,0.58122 -0.09242,0.17429 -0.09198,0.36939 -0.151579,0.55186 -0.03887,0.1204 -0.04578,0.25976 -0.155465,0.35266 -0.152011,0.0929 -0.327774,0.19474 -0.348498,0.3694 0.04405,-0.003 0.0881,-0.006 0.132573,-0.009 0.03498,-0.12115 0.0665,-0.25122 0.183108,-0.33595 0.07557,0.007 0.151148,0.0141 0.227149,0.0204 -0.03887,0.2252 -0.09242,0.44892 -0.09544,0.67747 0.0017,0.10665 -0.04275,0.20662 -0.09414,0.30175 -0.07816,0.13713 -0.03023,0.29135 -0.02678,0.43703 -0.03282,0.0394 -0.08119,0.0654 -0.136032,0.0754 -0.118694,0.0253 -0.238429,0.052 -0.359247,0.072 h 1.610715 c -0.09857,-0.6197 -0.01635,-1.24825 -0.08202,-1.87028 0.01857,-0.0145 0.05571,-0.0435 0.07428,-0.058 0.03584,-0.17503 0.03455,-0.35601 -0.01468,-0.52844 z m -0.81015,2.44676 c -0.06175,-0.0739 0.03109,-0.18321 0.06521,-0.26162 0.184399,0.0111 0.460783,-0.0364 0.525128,0.16574 -0.16583,0.12004 -0.389528,0.0981 -0.590338,0.0959 z"
       id="path3461-3"
       style="display:inline;stroke-width:0.0400605" />
    <g
       id="g3480"
       transform="matrix(0.04318492,0,0,0.03716219,-22.536801,104.31595)"
       style="display:inline">
      <path
         fill="#140a07"
         d="m 854.77,615.38 c 0.0208,-0.0374 0.0454,-0.0717 0.0663,-0.1089 l -4.7399,0.8089 c -0.0127,0.01 -0.0237,0.0206 -0.0364,0.03 -2.1665,0.0922 -4.2942,-0.0936 -6.3706,-0.4977 l -10.4572,-0.2954 c 0.0189,0.0148 0.0388,0.0283 0.0577,0.0432 1.97,1.41 4.22,2.33 6.49,3.16 0.45,-0.54 1.34,-1.62 1.79,-2.17 0.4099,1.23 0.8199,2.47 1.25,3.71 1.9099,-0.03 3.8398,-0.07 5.77,-0.1 0.0299,-0.91 0.0798,-1.81 0.1299,-2.7 1.48,-0.26 2.97,-0.52 4.47,-0.77 -1,0.77 -2.02,1.52 -3.01,2.3 5.3501,-0.45 10.6801,0.46 16.04,0.11 -2.4299,-0.71 -5.08,-1.13 -6.9299,-3.01 C 857.78,615.72 856.27,615.54 854.77,615.38 Z"
         id="path3457" />
      <g
         id="g3465"
         style="display:inline">
        <path
           fill="#030102"
           d="m 509.18,610.57 c 0.19,-3.51 1,-7.52 -1.39,-10.5 -2.34,-2.65 -4.9901,-5.13 -6.36,-8.47 -3.65,-6.92 -2.48,-14.98 -4.18,-22.38 -0.72,-3.06 -2.69,-5.58 -4.65,-7.9399 -1.82,-2.3 -3.91,-4.36 -6.22,-6.14 0.04,-2.13 0.05,-4.26 0.05,-6.37 -3.18,-2.09 -6.39,-4.5 -10.35,-4.63 0.53,-2.36 1.13,-4.7 1.87,-7 0.57,-2.02 1.44,-4.02 1.46,-6.14 -0.8,-4.39 -3.39,-8.15 -5.34,-12.09 -0.63,-0.11 -1.9,-0.3199 -2.53,-0.42 -0.25,-3.09 -0.94,-6.11 -2.08,-8.99 -2.06,-0.06 -4.11,-0.11 -6.16,-0.14 -0.95,2.12 -2.17,4.31 -1.8799,6.73 0.29,2.41 1.4399,4.59 2,6.94 -1.33,3.6 -3.63,6.72 -5.53,10.02 -4.3,-1.97 -8.56,-4.09 -13.12,-5.37 -0.91,0.87 -1.36,1.97 -1.35,3.3 1.56,0.71 3.15,1.36 4.71,2.06 2.98,1.45 5.44,3.7 7.89,5.89 -1.13,1.99 -2.5,3.82 -4.09,5.46 -0.43,-0.85 -1.3,-2.55 -1.73,-3.4 -0.56,0.54 -1.68,1.6 -2.23,2.13 -1.49,0.11 -2.96,0.25 -4.43,0.39 -0.56,-0.32 -1.6801,-0.97 -2.2401,-1.3 -1.1,1.44 -2.27,2.83 -3.44,4.22 0.5,0.19 1.51,0.57 2.01,0.76 -4.55,1.26 -8.55,3.84 -12.52,6.3 -3.89,2.35 -5.75,7.13 -10.11,8.82 -3.71,1.49 -8.42,1.48 -11.77,-0.84 -2.23,-2.8199 -3.58,-6.3 -6.48,-8.58 -2.29,-3.62 -5.27,-6.93 -6.0099,-11.3 -3.28,-0.26 -6.71,-0.67 -9.78,0.79 -4.27,1.85 -9.17,0.72 -13.46,2.47 -2.5,1.04 -3.52,3.72 -4.78,5.9 0.68,0.97 1.37,1.95 2.07,2.94 3.05,-0.42 6.5,-0.93 9.07,1.23 1.78,1.11 1.03,3.41 1.15,5.15 -1.83,5.54 -1.4,12.26 -5.52,16.76 -5.02,4.28 -11.54,0.65 -15.4,-3.35 0.11,-6.68 -5.59,-10.74 -9.14,-15.63 -1.56,-2.12 -3.57,-3.81 -5.67,-5.35 -0.06,-2.23 -0.11,-4.46 -0.15,-6.68 -0.93,-0.91 -1.89,-1.77 -2.85,-2.62 -0.03,-0.24 -0.08,-0.72 -0.1,-0.96 1.22,-4.09 2.72,-8.19 5.18,-11.7 2.56,-0.21 5.2,0.59 7.7,-0.18 2.32,-0.94 1.15,-3.92 0.4301,-5.64 -1.83,-3.11 -2.81,-6.58 -3.57,-10.07 -1.94,-0.07 -3.88,-0.13 -5.82,-0.17 0.04,0.41 0.11,1.23 0.15,1.64 2.13,1.95 3.73,4.36 5.1801,6.85 -3.19,-2.58 -8.11,-3.12 -10.21,-6.86 0.5,-1.72 1.24,-3.35 1.95,-4.99 -1.41,-1.62 -2.82,-3.22 -4.26,-4.81 -3.58,0.14 -6.28,2.37 -7.87,5.46 1.54,2.17 2.78,4.54 3.34,7.17 -2.61,0.76 -5.49,1.22 -7.57,3.13 -2.56,2.16 -4.73,5.08 -8.08,6.05 -4.45,1.15 -9.08,1.21 -13.64,1.43 0.71,3.23 -0.16,6.38 -1.67,9.24 -1.98,0.33 -3.96,0.7 -5.96,0.73 -0.85,0.03 -2.57,0.07 -3.43,0.1 1.02,0.87 2.02,1.71 3.05,2.61 -3.2,1.52 -6.58,2.62 -9.83,4 -3.77,1.52 -6.24,5.02 -9.94,6.66 -7.22,3.54 -16.27,4.5 -23.65,0.98 -6.42,-4.34 -11.48,-10.37 -16.32,-16.35 -5.7,-0.85 -11.12,0.98 -16.62,2.09 -3.59,0.23 -5.99,3.19 -8.62,5.29 -0.61,2.0699 -0.9,4.22 -1.14,6.37 0.54,0.12 1.62,0.34 2.16,0.46 2.4901,5.57 0.01,11.46 -0.03,17.21 -0.1,5.25 -1.17,10.39 -1.97,15.56 0.22,7.7 -2.38,16.33 -9.17,20.68 -3.81,2.63 -8.61,-0.05 -11.31,-3.04 -3.39,-3.78 -1.52,-9.18 -1.87,-13.72 2.72,-1.09 6.4,-0.5 8.42,-2.84 1.39,-4.93 -1.41,-9.58 -3.56,-13.81 -1.32,-1.05 -2.78,-1.9 -4.2,-2.79 -0.36,-4.12 -0.36,-8.45 -2.33,-12.19 -1.6,-2.94 -3.67,-5.57 -5.56,-8.31 -0.22,-3.27 0.92,-7.82 -2.7,-9.59 -2.34,-0.76 -4.99,-0.95 -7.37,-0.27 -1.07,1.83 -0.95,4.03 -1.2,6.08 1.05,3.57 3.12,6.75 4.05,10.35 -0.08,2.61 -2.77,4.17 -4.21,6.1 0.28,0.93 0.56,1.87 0.85,2.81 -0.54,5.69 0.33,11.46 -1.21,17.05 -1.02,-4.13 -1.29,-8.37 -1.8,-12.57 -0.8,-5.18 -5.27,-8.52 -9.06,-11.63 0.71,-2.47 0.52,-4.95 -0.71,-7.21 -2.58,-0.27 -5.17,-1.11 -7.77,-0.73 -1.72,1.02 -3.22,2.52 -4.13,4.31 0.14,4.83 4.48,8.07 8.17,10.51 -1.68,5.48 -2.79,11.1 -3.54,16.78 -1.23,4.22 1.79,8.9901 -0.97,12.76 0.31,2.11 1.07,4.11 2.22,5.91 0.08,5.64 -1.55,11.24 -0.73,16.88 0.05,2.26 2.31,3.27 3.7401,4.65 0.0699,1.16 0.14,2.33 0.22,3.51 -2.5811,1.1226 -5.2186,1.7757 -7.8905,2.1117 H 155.66 c -0.0278,-2.0975 -0.202,-4.2279 0.4,-6.2517 0.47,-1.93 2.52,-2.59 3.96,-3.62 1.49,1.06 3.28,1.87 4.3,3.47 1.5,2.13 0.98,4.86 1.16,7.31 -0.3651,0.2095 -0.735,0.3747 -1.1083,0.5083 h 10.2998 c -0.6675,-4.0742 -1.7151,-8.3212 -0.1714,-12.3083 1.56,0.03 3.13,0.0699 4.69,0.1 2.95,3.16 4.94,7.12 8.26,9.95 0.0712,0.9691 0.1422,1.9419 0.2134,2.925 h 5.0358 c 1.2494,-1.2514 2.5068,-2.4986 3.7808,-3.715 -2.45,-3.54 -5.34,-6.75 -7.64,-10.39 -0.75,-2.55 -1.39,-5.13 -2.1,-7.69 4.78,2.14 10.24,1.98 14.78,-0.69 1.97,-2.17 3.84,-4.51 4.92,-7.26 3.64,-9.39 1.6,-19.91 5.12,-29.3 1.31,0.53 2.66,1.05 4,1.55 -0.51,-1.93 -1.03,-3.85 -1.54,-5.77 -0.87,-0.79 -1.74,-1.57 -2.6,-2.35 0.03,-3.97 -0.5099,-8.17 1.52,-11.78 l 1.02,-0.57 c 4.49,3.3701 10.7,3.82 14.39,8.26 3.39,3.37 8.03,4.94 12.46,6.43 5.3,1.77 10.26,4.39 15.31,6.77 4.78,2.26 10.19,1.34 15.3,1.59 1.3,3.18 3.46,6.08 4.12,9.48 -1.65,6.39 -5.57,11.89 -9.55,17.05 -1.56,2.1 -3.42,4.23 -3.68,6.95 -0.55,4.16 -0.98,8.43 -2.94,12.23 -2.13,3.51 -2.92,8.44 -6.97,10.33 1.83,1.11 3.65,2.23 5.47,3.35 -0.1,-1.2599 -0.19,-2.5099 -0.28,-3.75 0.59,0.44 1.19,0.88 1.79,1.34 0.79,-1.59 1.59,-3.16 2.3,-4.78 1.81,-5.36 2.84,-11.11 6.21,-15.81 4.09,-7.2 8.52,-14.35 14.59,-20.08 3.44,7.39 5.5099,15.26 7.56,23.12 2.44,5.96 1.81,12.48 1.49,18.75 0.72,0.75 1.44,1.49 2.16,2.25 0.15,-1.2 0.31,-2.4 0.48,-3.58 0.8799,0.67 1.7599,1.35 2.65,2.04 -0.12,-5.85 -1.66,-11.68 -0.64,-17.52 0.28,-2.33 0.75,-4.75 -0.03,-7.04 -2.34,-7.2599 -3.9,-14.78 -4.64,-22.37 2.12,-0.05 4.25,-0.08 6.38,-0.1 -0.18,2.41 -0.37,4.83 -0.57,7.26 0.58,0.04 1.73,0.13 2.31,0.17 -0.67,-2.28 -2.1,-4.74 -0.95,-7.1 2.41,-0.7401 4.95,-0.2401 7.41,-0.11 0.91,1.36 1.81,2.71 2.73,4.07 0.76,-0.07 2.27,-0.2 3.03,-0.26 0.7599,-1.04 1.46,-2.13 2.35,-3.05 6.77,-2.97 14.28,-1.64 21.42,-1.71 -0.65,2.47 -1.8,5.09 -0.82,7.65 3.29,8.86 2.69,19.22 -1.42,27.72 -2.34,4.86 -5.66,9.19 -9.63,12.82 0.27,0.16 0.8,0.48 1.07,0.64 1.22,-0.13 2.45,-0.25 3.68,-0.36 0.75,-1 1.51,-1.98 2.26,-2.98 3.84,-5.38 8.44,-10.15 12.88,-15.03 -0.6,-7.87 -0.01,-15.83 2.64,-23.31 4.65,2.45 9.31,5.4 11.53,10.39 6.52,9.16 9.36,20.39 9.55,31.53 0.66,0.02 1.32,0.05 1.9901,0.09 0.42,-1.68 0.83,-3.37 1.19,-5.05 -0.15,-1.66 -0.3,-3.31 -0.48,-4.95 -1.03,-5.5 -0.18,-11.11 -0.68,-16.63 -2.22,-5.53 -5.95,-10.31 -8.53,-15.65 -1.92,-5.37 -4.81,-10.64 -4.43,-16.53 3.06,1.69 6.04,3.98 9.6299,4.33 2.86,-0.25 5.4901,-1.57 8.23,-2.32 0.18,1.7 0.38,3.41 0.59,5.13 0.72,-2.08 1.67,-4.22 1.14,-6.46 -0.98,-4.76 0.51,-9.47 1.13,-14.16 0.96,-0.7 1.94,-1.37 2.93,-2.03 l 0.93,-0.48 c -0.49,-0.91 -0.98,-1.81 -1.46,-2.71 5.39,2.61 7.58,8.43 11.77,12.35 4.09,4.04 8.6,7.7 13.53,10.68 4.04,2.49 8.95,2.33 13.52,2.18 0.8,1.37 2.41,2.64 1.97,4.43 -1.03,6.95 -1.99,14.05 -5.01,20.48 -2.44,5.13 -2.08,11.09 -4.71,16.17 -1.6299,3.16 -3.54,6.17 -5.62,9.06 -0.1558,0.2044 -0.4703,0.5864 -0.6345,0.8002 l 6.1342,0.3416 c 0.8814,-2.4835 1.782,-4.9509 2.7803,-7.3819 1.75,-4.92 4.8,-9.2 6.93,-13.93 3.29,-8.77 6.26,-18.06 12.77,-25.05 1.9,1.2 4.32,1.97 5.48,4.04 2.86,5.1801 4.85,10.85 5.82,16.69 0.68,4.9 3.59,9.05 4.86,13.77 0.64,3.83 0.47,7.72 0.19,11.58 0.93,0.49 1.86,0.97 2.8,1.48 0.71,-1.01 1.43,-2.02 2.11,-3.04 -0.34,-4.04 -1.7,-7.9 -2.15,-11.92 -0.46,-3.68 -0.31,-7.41 -0.59,-11.1 -2.06,-6.33 -3.99,-12.9 -4.06,-19.6 3.14,-1.73 6.87,-0.79 10.29,-1.28 6.36,-0.82 12.17,-3.96 18.58,-4.66 1.05,3.76 1.8,7.66 3.54,11.19 0.95,2.08 2.28,4.09 2.42,6.45 0.42,6.11 1.12,12.39 -0.57,18.38 -1.52,4.77 -4.1,9.11 -6.99,13.1801 0.68,2.04 2.45,0.92 3.82,0.36 3.66,-6.85 8.01,-13.28 12.2,-19.8 -1.25,-5.36 -1.74,-10.85 -1.43,-16.34 4.63,0.55 7.13,4.78 10.08,7.86 5.49,6.05 7.07,14.51 7.03,22.43 -0.11,2.21 0.61,4.3 1.49,6.3 1.17,-0.57 2.35,-1.13 3.53,-1.66 -0.66,-1.46 -1.2401,-2.97 -1.75,-4.47 C 509.3,621 508.63,615.78 509.18,610.57 Z m -348.11,-0.69 c -0.97,-0.45 -1.94,-0.9 -2.91,-1.35 0.55,-2.9901 1.9,-5.96 4.5,-7.69 0.06,3.09 -0.48,6.15 -1.59,9.04 z M 301.2,539.39 c 0.13,-1.34 0.27,-2.67 0.41,-3.99 1.2,0.06 2.4,0.13 3.6,0.21 0.12,-1.4 0.29,-2.8 0.51,-4.19 4.39,1.02 8.64,2.99 13.3,2.18 -0.15,0.76 -0.44,2.28 -0.59,3.04 -0.39,1.53 -0.83,3.05 -1.2599,4.57 -1.5601,0.16 -3.1201,0.33 -4.6801,0.5 -0.17,-0.46 -0.52,-1.38 -0.69,-1.84 -0.2599,-0.68 -0.77,-2.03 -1.03,-2.71 -0.71,0.05 -2.12,0.15 -2.82,0.2 -0.98,-0.52 -1.96,-1.05 -2.93,-1.56 -1.27,1.19 -2.54,2.39 -3.82,3.59 z"
           id="path3459" />
        <path
           fill="#030102"
           d="m 562.96,565.83 c -0.98,-3.67 -4.38,-5.82 -6.59,-8.69 0.58,-1.37 2.02,-2.47 2.17,-3.96 -0.84,-2.46 -2.39,-4.58 -3.66,-6.82 -3.09,-0.39 -6.02,0.49 -8.5,2.32 0.25,5.21 1.17,10.72 -1.11,15.64 -2.14,4.69 -2.13,9.94 -3.51,14.85 -0.9,3.24 -1.06,6.99 -3.6,9.49 -3.52,2.5 -7.59,5.2401 -8.0699,9.94 1.02,-0.09 2.04,-0.17 3.0699,-0.25 0.81,-3.2599 1.54,-6.7599 4.2401,-9.04 1.75,0.19 3.5,0.38 5.2599,0.55 -0.9,6.06 -2.14,12.08 -2.21,18.23 0.04,2.87 -0.99,5.56 -2.18,8.12 -1.81,3.69 -0.7,7.84 -0.62,11.7599 -0.76,1.0601 -1.88,1.76 -3.15,2.03 -2.7485,0.6815 -5.5211,1.3987 -8.3188,1.9375 h 37.2981 c -2.2825,-16.6755 -0.3785,-33.5891 -1.8993,-50.3275 0.43,-0.39 1.29,-1.17 1.72,-1.56 0.83,-4.7099 0.8,-9.5799 -0.34,-14.2199 z m -18.76,65.84 c -1.43,-1.99 0.72,-4.93 1.51,-7.04 4.27,0.3 10.67,-0.98 12.16,4.46 -3.84,3.23 -9.02,2.64 -13.67,2.58 z"
           id="path3461"
           style="display:inline" />
        <path
           fill="#030102"
           d="m 1080.51,603.96 c -3.85,-3.94 -6.8101,-8.65 -8.99,-13.69 -1.5,-6.68 -2.4301,-13.59 -1.97,-20.45 -0.29,-3.93 0.34,-8.17 -1.5701,-11.78 -2.22,-3.39 -5.6,-6.0099 -7.01,-9.91 -1.21,-3.47 -3.83,-6.13 -5.72,-9.2 -1.21,-0.57 -2.4,-1.13 -3.5699,-1.68 -0.65,-3.35 -1.4301,-6.72 -3.0601,-9.74 -2.71,-2.72 -6.46,-2.41 -9.75,-1.06 -2.89,-8.75 -4.53,-18.06 -9.3,-26.07 -1.5099,-2.69 -4.0099,-4.6 -5.7899,-7.06 -0.52,-2.81 -0.48,-5.86 -2.52,-8.11 -1.9399,0.05 -3.89,-0.06 -5.78,0.32 -2.1399,1.84 -2.74,4.73 -3.47,7.31 0.88,1.35 1.78,2.69 2.63,4.09 -0.52,0.29 -1.58,0.89 -2.1,1.18 -0.5601,2.57 -1.27,5.25 -3.23,7.14 -3.49,3.53 -6.8701,7.16 -10.41,10.65 -2.52,2.6801 -5.35,5.57 -5.76,9.41 1.51,-0.02 3.0399,-0.05 4.58,-0.17 0.6201,-0.13 1.8601,-0.39 2.48,-0.52 1.65,1.48 3.28,2.97 4.91,4.5 -1.15,0.83 -2.2899,1.83 -3.7699,1.81 -1.4302,1.9 -4.05,2.12 -6.1301,2.89 0.54,1.4 1.0901,2.81 1.65,4.24 -0.65,0.37 -1.9501,1.12 -2.6,1.5 0.09,0.66 0.29,1.98 0.38,2.64 -2.9,3.54 -5.49,7.48 -9.1801,10.26 -5.1499,3.05 -11.46,5.3 -17.4399,3.6 -3.17,-1.28 -5.24,-4.2 -7.6899,-6.44 -3.4501,-3.86 -8.1201,-6.66 -10.51,-11.39 -3.1001,0.01 -6.4701,-0.44 -9.1401,1.46 -4.1499,2.83 -9.4399,2.14 -13.8999,4.09 -2.55,1.2 -3.0901,4.2599 -4.39,6.47 1.2699,1.31 2.6901,2.43 4.2001,3.46 -2.2201,4.49 -5.28,8.47 -8.1901,12.5099 -3.9601,5.67 -10.7401,8.76 -17.4,9.79 -4.88,0.79 -8.5,-3.24 -11.45,-6.48 -2.5601,-2.55 -3.3701,-6.11 -4.4501,-9.41 -0.9301,-2.29 -2.75,-4.07 -4.89,-5.22 -3.8899,-2.23 -6.52,-5.94 -9.6,-9.07 0.03,-0.58 0.09,-1.72 0.12,-2.29 -1.53,-0.07 -3.04,-0.12 -4.54,-0.16 -2.8699,-2.7 -5.0999,-5.95 -7.52,-9.03 -1.71,0.04 -3.4099,0.1 -5.0898,0.2 -0.0701,-2.86 -0.3101,-5.7 -1.03,-8.47 -3.48,-2.27 -4.8901,-6.34 -7.1901,-9.6 -1.12,-0.12 -2.23,-0.23 -3.33,-0.33 -0.6001,-2.55 -1.3301,-5.14 -2.99,-7.21 -2.29,-2.9 -3.52,-6.44 -5.5701,-9.47 -2.3199,-2.5 -5.9299,-1.63 -8.86,-1.1 -0.2899,2.17 -0.5499,4.35 -0.8199,6.53 1.08,3.43 2.71,7.31 0.9399,10.81 -2.23,4.78 -4.88,9.35 -7.51,13.92 -1.48,2.41 -3.3101,4.58 -5.1799,6.7 1.5599,0.66 3.1199,1.3 4.71,1.95 -0.76,2.31 -2.05,4.39 -3.4399,6.37 -1.03,-0.97 -2.05,-1.9301 -3.0601,-2.88 0.99,1.4 2.01,2.79 3.03,4.19 -1.63,3.08 -1.77,6.55 -2.3,9.92 -2.96,3.19 -7.85,3.81 -12,3.78 -2.98,0.13 -5.72,-1.21 -7.85,-3.19 -3.3199,-4.1299 -7.83,-7.8 -8.9,-13.25 -1.54,-1.97 -3.73,-3.3 -6.3,-2.47 -5.73,1.32 -11.6099,1 -17.4199,0.7 -1.0901,1.59 -3.79,2.84 -3.13,5.1 0.7999,1.01 1.66,1.98 2.5699,2.92 -0.3999,0.29 -1.22,0.86 -1.6199,1.15 v 0 c -5.99,0.1 -12.7301,1.16 -17.9401,-2.51 -0.62,0.54 -1.87,1.63 -2.49,2.17 -1.78,-2.33 -3.41,-4.84 -3.8099,-7.8 -0.6901,-1.05 -1.3201,-2.15 -1.9401,-3.23 -2.87,-1.12 -5.55,-2.75 -7.3,-5.35 -0.5399,-0.11 -1.6,-0.33 -2.14,-0.44 1.3801,1.62 2.8,3.2 4.24,4.78 -1.3599,0.35 -2.72,0.71 -4.0699,1.07 -0.9301,-3.2 -1.4501,-6.51 -1.4301,-9.85 l -0.79,-0.29 c -1.2,-1.28 -2.3099,-2.64 -3.4299,-3.96 -1.25,0.87 -2.47,1.75 -3.6799,2.65 0.1699,-2.71 -0.96,-5.11 -2.5701,-7.19 0.29,-0.3 0.88,-0.88 1.17,-1.18 -1.37,-3.43 -2.2201,-7.03 -2.8,-10.67 -1.7999,-5.91 -5.96,-10.76 -11.56,-13.38 -0.09,-2.87 -1.08,-5.96 -3.97,-7.11 -2.21,-1.66 -4.87,-0.56 -6.55,1.2401 -1.12,2.73 -0.77,5.71 -0.57,8.58 0.92,0.63 1.84,1.27 2.77,1.92 -1.1299,6.61 -5.0699,12.16 -7.27,18.4 -1.09,3.34 -4.08,5.35 -6.48,7.69 0.35,1.77 1.29,3.36 2.04,5 -2.77,2.69 -5.71,5.21 -8.86,7.45 -5.13,3.6 -8.61,9.34 -14.52,11.84 -4,1.63 -8.79,3.1 -12.86,0.95 -2.04,-0.9901 -3.1,-3.1 -4.15,-4.97 -2.54,-5.08 -6,-9.64 -8.26,-14.87 -1.55,-3.24 -5.7,-2.79 -8.68,-3.12 -4.05,2.59 -8.87,2.24 -13.46,2.32 -2.54,-0.09 -4.48,1.74 -6.24,3.31 -0.84,2.88 0.66,5.56 1.88,8.07 0.37,-0.2 1.11,-0.6 1.49,-0.8 0.48,-0.25 1.45,-0.7401 1.94,-0.9901 3.76,2.4301 7.26,5.2401 11.17,7.44 1,2.51 1.8,5.29 3.89,7.16 2.67,2.39 5.94,3.98 8.67,6.32 2.98,2.53 6.16,4.86 9.76,6.43 4.97,2.37 10.6299,1.3 15.95,1.63 0.42,0.88 0.86,1.76 1.31,2.64 1.56,0.3 3.16,0.55 4.72,0.9901 -0.3,2.15 -1.43,4.06 -2.56,5.88 -3.99,6.14 -9.22,11.35 -14.82,16.03 -0.22,4.93 3.1,8.81 4.6,13.26 1.35,3.46 1.74,7.19 2.85,10.73 0.91,2.16 2.66,3.83 3.94,5.77 0.22,-0.46 0.66,-1.39 0.88,-1.85 0.5,0.36 1.49,1.08 1.99,1.45 1.67,0.24 3.35,0.48 5.04,0.7 2.52,0.25 5.04,0.56 7.56,0.89 -0.68,0.71 -1.35,1.43 -2.02,2.15 1.95,0.25 3.8101,-0.31 5.41,-1.42 -1.04,-0.77 -2.08,-1.52 -3.11,-2.27 5.07,-1.7401 9.38,1.85 13.88,3.53 4.09,1.67 8.58,0.75 12.87,0.65 4.57,0.9 7.89,-2.33 10.8899,-5.22 4.6802,-5.75 9.28,-11.57 14.4202,-16.93 -0.04,-6.89 0.95,-13.8 3.1399,-20.35 1.3,-3.75 2.29,-7.9 5.42,-10.6 0.4401,2.12 0.84,4.25 1.26,6.39 l -1.7301,-0.26 c -0.3899,1.5 -0.7899,2.99 -1.1799,4.5 1.16,-0.93 2.3,-1.88 3.53,-2.74 -0.64,3.81 -3.03,6.92 -4.75,10.28 0.8899,-0.04 2.6899,-0.13 3.59,-0.17 -0.5699,1.37 -1.15,2.74 -1.75,4.11 l 1.89,0.98 c 0.73,-2 1.0801,-4.11 1.1,-6.24 -0.64,0.2 -1.91,0.59 -2.5499,0.78 1.27,-2.31 2.46,-4.65 3.5699,-7.03 0.38,0.3 1.13,0.9 1.51,1.2 1.24,0.59 2.5,1.16 3.77,1.7401 0.24,0.42 0.7,1.2599 0.9301,1.68 6.4199,9.44 10.9099,20.68 10.5599,32.25 0.2699,0.01 0.7999,0.05 1.0699,0.06 0.47,-0.06 1.41,-0.19 1.8801,-0.26 -0.6301,-7.83 -0.4202,-15.71 0.0199,-23.54 -4.67,-6.2401 -7.59,-13.56 -9.5499,-21.05 -2.1901,-6.5 -1.48,-13.45 -2.74,-20.11 1.1599,-1.26 2.33,-2.52 3.51,-3.77 -1.04,-1.28 -2.0701,-2.56 -3.1001,-3.8199 4.87,0.91 9.8501,1.11 14.79,0.83 1.8899,-0.08 3.74,-0.42 5.59,-0.8 4.6901,1.34 7.9601,5.14 12.1901,7.35 2.1499,6.1 8.3799,8.6 13.9199,10.72 3.8201,2 7.8301,3.62 11.91,5.03 2.85,0.26 5.7101,0.19 8.58,0.13 -0.1199,2.4301 -0.24,4.86 -0.36,7.3 0.4701,-0.04 1.42,-0.12 1.9,-0.17 0.37,-2.41 0.78,-4.82 1.22,-7.22 0.5,-0.01 1.51,-0.03 2.01,-0.04 2.4299,3.29 5.28,6.22 7.74,9.48 -0.6699,6.71 -0.8899,13.54 -3.1799,19.97 -0.48,2.03 -0.8301,4.08 -1.1901,6.13 1.17,0.97 2.42,1.86 3.6,2.84 -0.4861,2.5204 -0.6693,5.1485 -1.6882,7.5338 l 3.1743,0.6261 c 0.4491,-2.4598 0.9965,-4.9097 1.604,-7.3299 3.8479,1.7103 7.3785,4.0051 10.6923,6.5969 l 10.4572,0.2954 c -6.7122,-1.3066 -12.8687,-4.9745 -17.9094,-9.5723 -1.64,-1.2 -0.8,-3.34 -0.8,-5 0.8501,-7.7 0.5601,-16.4 5.87,-22.67 2.4301,0.45 4.7201,-0.51 6.89,-1.49 5.27,-0.07 10.52,-0.8 15.5801,-2.3 0.46,1.32 0.9099,2.64 1.4299,3.96 3.36,5.22 4.23,11.44 4.95,17.4901 0.6301,4.8799 -2.03,9.25 -4.3699,13.28 -1.5217,2.4068 -2.9165,5.0395 -5.2336,6.77 l 4.7399,-0.8089 c 3.2426,-5.7943 8.2896,-10.1843 12.3137,-15.3511 -0.1,-3.45 -0.92,-6.81 -1.4301,-10.2 -0.6399,-7.5699 1.73,-15.24 6.5601,-21.1 1.1,3.83 1.85,7.75 2.45,11.7 1.1101,1.4 2.23,2.8 3.3401,4.22 -0.98,1.23 -1.9501,2.45 -2.8901,3.7 1.4001,-0.74 2.8101,-1.48 4.2101,-2.23 1.46,1.65 2.62,3.52 3.5399,5.53 3.8901,7.28 5.1901,15.7401 4.4401,23.91 h 2.15 c 0.6599,-5.09 1.73,-10.11 2.79,-15.12 1.1099,-3.49 -1.78,-6.33 -2.8901,-9.38 -1.45,-2.75 -2.1699,-5.77 -2.6499,-8.81 -0.24,-1.25 -0.48,-2.49 -0.73,-3.72 l -0.3401,-0.73 c 0.0901,-4.33 0.67,-8.62 1.3701,-12.88 3.6599,3.93 7.6899,9.15 13.7,8.63 6.29,-1.04 12.4299,-3.92 16.96,-8.46 3.3101,-4.14 5.9,-8.79 9.14,-12.98 1.48,-2.43 4.62,-1.9 7.03,-2.39 2.72,2.07 5.9,3.3 9.23,4.05 2.63,3.42 5.62,6.82 9.7101,8.5 5.5299,2.14 10.3198,5.94 16.1899,7.26 3.9399,1.37 8.1399,1.17 12.25,0.89 0.79,1.83 1.6,3.67 2.45,5.49 0.01,-1.97 0.03,-3.95 0.05,-5.91 0.83,0.96 1.6699,1.94 2.51,2.92 -0.4,1.97 -0.76,3.94 -1.04,5.94 -1.03,7.53 -3.7,14.72 -7.23,21.42 -0.78,4.79 0.12,9.89 -1.76,14.55 -0.5,1.61 -1.04,3.22 -1.6001,4.82 l 4.7401,0.64 c 0.22,-4.89 1.37,-9.74 3.49,-14.16 2.11,-4.43 2.83,-9.39 5.21,-13.71 2.33,-4.33 4.1901,-8.89 6.53,-13.21 1.47,-0.96 2.85,-2.04 4.39,-2.9 5.3899,1.14 5.6599,7.37 7.29,11.6 1.58,4.61 2.74,9.38 3.0699,14.26 0.13,2.89 1.63,5.42 2.5,8.12 1.34,3.96 1.42,8.18 1.5399,12.32 0.4301,0.03 1.29,0.09 1.7201,0.13 0.72,1.27 1.46,2.55 2.2001,3.83 9.95,-0.06 19.7499,2.3 29.71,1.7599 2.25,0.1201 4.1799,-1.23 6.34,-1.61 3.1,0.97 5.96,2.89 9.3199,2.95 3.6001,0.16 7.1001,1.06 10.65,1.67 3.23,0.08 5.97,-2.06 8.5701,-3.72 C 1078.55,622.76 1079.02,613.06 1080.51,603.96 Z m -407.87,18.59 c -4.85,0.18 -9.7,-0.13 -14.55,-0.27 -0.1801,-0.54 -0.55,-1.63 -0.73,-2.17 l -0.21,-0.58 c -0.95,-0.46 -1.9,-0.89 -2.84,-1.29 -2.36,-4.12 -3.83,-8.69 -4.8,-13.31 -0.81,-4.68 1.18,-9.55 4.75,-12.61 4.41,-3.93 8.71,-8.32 14.28,-10.57 1.55,7.35 3.1,14.86 2.39,22.41 -0.28,2.97 1.16,5.69 1.93,8.48 0.54,3.29 0.23,6.62 -0.22,9.91 z m 14.06,-91.86 c -1.88,-0.78 -3.75,-1.53 -5.69,-2.06 0.76,-0.51 1.53,-1.01 2.3,-1.51 1.1,1.21 2.26,2.37 3.39,3.57 z m -5.36,-8.51 c 1.86,-0.73 2.41,2.34 0.5699,2.63 -1.8299,0.6 -2.3299,-2.3 -0.5699,-2.63 z m 34.05,68.74 c -0.9701,6.26 -1.25,12.73 -3.88,18.6 -2.5701,5.75 -5.5901,11.5 -10.08,16 -1.08,0.3 -2.14,0.6 -3.21,0.88 -5.0099,0.33 -10.04,0.29 -15.06,0.03 -2.14,-1.32 -4.41,-2.4 -6.67,-3.48 -0.06,-1.43 -0.1,-2.85 -0.12,-4.27 -0.43,-5.7 2.69,-11.08 1.63,-16.76 -1.15,-7.34 -0.99,-14.82 -0.33,-22.2 2.94,-0.15 5.92,-0.31 8.75,-1.24 5.27,-1.64 10.87,-1.6 16.18,-3.11 4.61,-0.97 8.58,-3.95 13.37,-4.25 -0.8899,1.95 -2.24,3.77 -2.5601,5.94 -0.0798,4.72 2.8101,9.1 1.9801,13.86 z m 23.62,-37.62 c -1.46,0.43 -2.63,-2.82 -0.86,-3.06 1.31,0.2 1.73,2.16 0.86,3.06 z m 78.76,-14.16 c 1.1899,-0.88 1.87,-0.61 2.03,0.81 -1.2,0.87 -1.8801,0.6 -2.03,-0.81 z m 5.5501,47.26 c -0.67,0.68 -1.3201,1.39 -1.9501,2.1 0.63,-0.71 1.28,-1.42 1.9501,-2.1 0.75,-0.04 1.51,-0.08 2.2799,-0.1 -0.0199,-0.94 -0.0399,-1.87 -0.0399,-2.79 0.5599,-0.365 1.1274,-0.7263 1.6899,-1.09 -0.5625,0.3638 -1.13,0.725 -1.6899,1.09 0,0.92 0.02,1.85 0.0399,2.79 -0.7699,0.02 -1.5299,0.06 -2.2799,0.1 z m 5.6198,-5.07 v 0 c 0.2351,0.13 0.5925,0.325 0.9513,0.52 -0.3587,-0.195 -0.7162,-0.39 -0.9513,-0.52 z m 30.5547,1.1203 c 0.1272,-0.0721 0.2429,-0.1378 0.3354,-0.1903 v 0 c -0.0925,0.0525 -0.2082,0.1182 -0.3354,0.1903 z M 864.45,596.83 c -0.29,-1.66 -0.5699,-3.32 -0.8199,-4.97 -0.4401,1.33 -0.89,2.65 -1.3099,3.99 0,-10e-5 0,-10e-5 0,-10e-5 0.4199,-1.3399 0.8699,-2.6599 1.3099,-3.9899 0.25,1.65 0.5299,3.3099 0.8199,4.9699 0,1e-4 0,1e-4 0,1e-4 z m -1.83,-51.15 c -0.66,-2.4 -1.27,-4.84 -1.65,-7.3 1.97,2.22 4.48,4.29 5.14,7.35 -1.1701,-0.02 -2.34,-0.03 -3.49,-0.05 z m 143.48,-16.86 c -2.1,-1.82 -4.1801,-3.65 -6.2999,-5.42 3.29,-0.52 6.59,-1.08 9.9399,-1.06 -1.11,2.21 -2.3101,4.39 -3.64,6.48 z m 47.01,97.87 c -0.2,0.53 -0.61,1.6 -0.8099,2.13 -11.6001,0.23 -23.12,-1.22 -34.6401,-2.33 -1.8499,-7.46 -0.9399,-15.09 -0.99,-22.65 -1.2899,-3.63 -2.3599,-7.35 -2.8599,-11.17 -0.4601,-3.27 -0.6201,-6.57 -0.51,-9.86 7.7,-0.42 15.2999,-1.9 22.99,-2.43 3.0599,-1.98 8.88,-5.26 10.95,-0.46 -0.59,2.77 -1.25,5.74 0.92,8.04 1.88,3.28 5.15,5.7599 6.0299,9.57 1.0801,4.14 2.64,8.2 3.02,12.49 -0.11,5.77 -2,11.35 -4.1,16.67 z m 23.66,5.31 c -7.1801,-0.58 -14.29,-1.83 -21.46,-2.46 2.58,-6.62 6.7,-12.42 10.1799,-18.55 -0.54,-3.35 -1.98,-6.47 -2.84,-9.73 -0.65,-2.41 -1.0701,-4.88 -1.37,-7.34 2.74,1 4.9099,2.99 6.5499,5.38 7.3002,9.01 10.6802,21.22 8.9402,32.7 z"
           id="path3463"
           style="display:inline" />
      </g>
      <path
         d="m 0,612.43 c 261.9868,32.6262 554.5719,16.6633 862.5541,5.629 30.5989,-1.0963 61.2439,-0.6052 91.7919,1.4719 C 1315.2881,644.0726 1647.3384,690.41 1920,690.41 V 1280 H 0 Z"
         id="path3467"
         style="display:inline" />
    </g>
    <path
       style="fill:#030102;stroke-width:0.264583"
       id="path1439"
       d="m 30.693066,125.53146 c -0.02567,0.0483 -0.07015,0.0824 -0.112972,0.11459 -0.0393,0.0295 -0.06908,0.0494 -0.109466,0.0772 -0.08354,0.0551 -0.166793,0.11058 -0.248809,0.1679 -0.05554,0.0384 -0.111154,0.0767 -0.168555,0.1123 -0.03744,0.0204 -0.131167,0.0851 0.03517,-0.0197 0.0072,-0.005 -0.01524,0.007 -0.02302,0.011 -0.02029,0.009 -0.02432,0.01 -0.04494,0.017 -0.04343,0.0144 -0.08834,0.0234 -0.132715,0.0343 -0.06032,0.0152 -0.121957,0.0232 -0.183772,0.0291 -0.05994,0.004 -0.119904,0.007 -0.179861,0.011 -0.03063,5.3e-4 -0.06092,0.004 -0.09108,0.009 -0.04337,0.006 -0.08716,0.01 -0.13082,0.0135 -0.0434,0.004 -0.08679,0.008 -0.130324,0.0111 -0.02865,0.002 -0.05734,0.002 -0.08602,0.002 -0.01894,1.4e-4 -0.03791,-8e-4 -0.05681,2.6e-4 -0.01093,10e-4 -0.02177,0.003 -0.03274,0.003 -0.01556,5.3e-4 -0.031,5.3e-4 -0.04645,0.002 -0.01125,0.001 -0.02252,0.002 -0.03381,0.003 0,0 -0.104569,0.0773 -0.104569,0.0773 v 0 c 0.01138,-0.001 0.02275,-0.002 0.03409,-0.003 0.015,-0.002 0.02973,-0.003 0.04486,-0.002 0.01124,-2.4e-4 0.02249,-8e-4 0.03357,-0.003 0.01894,-0.003 0.0379,-0.002 0.05701,-0.002 0.02909,-1.7e-4 0.05819,-2.6e-4 0.08726,-0.002 0.04425,-0.003 0.08827,-0.008 0.132358,-0.0123 0.04313,-0.003 0.08624,-0.007 0.129251,-0.0109 0.03032,-0.005 0.06052,-0.0105 0.09139,-0.0107 0.06112,-0.005 0.122164,-0.0106 0.183431,-0.0133 0.06115,-0.005 0.122332,-0.0109 0.182081,-0.0255 0.0445,-0.0109 0.08951,-0.0199 0.133276,-0.0335 0.09058,-0.0287 0.16983,-0.0819 0.250166,-0.13168 0.05658,-0.0359 0.111717,-0.074 0.166727,-0.11228 0.07999,-0.0565 0.161353,-0.1109 0.242684,-0.1654 0.03697,-0.0257 0.07381,-0.0509 0.109741,-0.0781 0.04677,-0.0354 0.09449,-0.0731 0.121867,-0.12632 0,0 -0.11824,0.0555 -0.11824,0.0555 z" />
    <path
       style="fill:#030102;stroke-width:0.264583"
       id="path1584"
       d="m 50.767413,127.73626 c -0.03648,0.0365 -0.144237,0.0924 0.04586,-0.0181 -0.02368,0.0125 -0.0486,0.0223 -0.07353,0.0319 -0.02228,0.008 -0.0452,0.0144 -0.06869,0.018 -0.03395,0.005 -0.06816,0.002 -0.102203,2.1e-4 -0.03611,-0.003 -0.07213,-0.002 -0.108236,-5e-5 -0.03134,0.003 -0.06271,0.006 -0.094,0.01 -0.02949,0.005 -0.05894,0.01 -0.08852,0.014 -0.03116,0.005 -0.06201,0.0113 -0.09342,0.0146 -0.03163,0.002 -0.06313,0.006 -0.09474,0.008 -0.02698,0.002 -0.05349,0.008 -0.08002,0.0131 -0.02397,0.004 -0.04714,0.0112 -0.07018,0.0188 -0.01921,0.006 -0.03886,0.0107 -0.0584,0.0157 -0.02032,0.005 -0.04052,0.01 -0.06111,0.0129 -0.03074,0.006 -0.06081,0.0148 -0.09112,0.0225 -0.0317,0.007 -0.06329,0.0136 -0.09482,0.021 -0.03161,0.007 -0.06281,0.0152 -0.09427,0.0225 -0.01447,0.003 -0.02912,0.005 -0.04359,0.008 0,0 -0.103759,0.079 -0.103759,0.079 v 0 c 0.01479,-0.004 0.02951,-0.007 0.04458,-0.009 0.03172,-0.007 0.06277,-0.0164 0.09462,-0.0226 0.03161,-0.007 0.06323,-0.015 0.09512,-0.0211 0.0298,-0.007 0.05917,-0.0155 0.08887,-0.0226 0.02109,-0.002 0.04146,-0.007 0.0621,-0.0119 0.01976,-0.004 0.03935,-0.009 0.05888,-0.0149 0.02323,-0.007 0.04582,-0.0166 0.07001,-0.0204 0.02609,-0.006 0.0524,-0.0106 0.07885,-0.0143 0.03188,-0.003 0.06361,-0.007 0.09555,-0.009 0.0316,-0.003 0.06259,-0.008 0.0937,-0.0139 0.02928,-0.005 0.05882,-0.008 0.08797,-0.0137 0.03122,-0.005 0.0631,-0.007 0.09441,-0.0115 0.03578,-0.002 0.07147,-0.004 0.107281,-10e-4 0.03426,0.002 0.06862,0.006 0.102896,0.002 0.0241,-0.002 0.04742,-0.007 0.07023,-0.0153 0.02545,-0.009 0.0505,-0.0195 0.07516,-0.0307 0.05849,-0.0337 0.127724,-0.0631 0.175336,-0.11428 0,0 -0.120822,0.0513 -0.120822,0.0513 z" />
    <path
       style="fill:#030102;stroke-width:0.0284128"
       d="m 190.22401,483.54485 c -0.92349,-0.0726 -1.48106,-0.12687 -1.42065,-0.13839 0.0547,-0.0104 0.25927,-0.0375 0.45461,-0.0602 0.19534,-0.0227 0.53416,-0.0686 0.75294,-0.10201 0.32115,-0.0491 0.4662,-0.0573 0.75294,-0.043 0.42274,0.0212 0.57607,-0.01 0.93763,-0.1903 0.13283,-0.0663 0.25109,-0.12473 0.26281,-0.12994 0.0117,-0.005 0.0213,0.1706 0.0213,0.39068 v 0.40015 l -0.12075,-0.004 c -0.0664,-0.002 -0.80479,-0.0575 -1.64084,-0.12324 z"
       id="path1586"
       transform="scale(0.26458333)" />
    <path
       style="fill:#030102;stroke-width:0.264583"
       id="path1590"
       d="m 49.950899,127.93837 c 0.01265,-7.9e-4 0.025,-0.004 0.03735,-0.007 0.01206,-0.003 0.02413,-0.005 0.03631,-0.007 0.01095,-0.002 0.02172,-0.004 0.0328,-0.005 0.01095,-2.6e-4 0.02188,2.7e-4 0.03283,5.3e-4 0.01003,-1.5e-4 0.02,7.9e-4 0.03,0.001 0.0097,2.7e-4 0.01937,8e-4 0.02904,10e-4 0.007,2.6e-4 0.01386,5.3e-4 0.02077,-5.3e-4 0.0042,-1.8e-4 0.0079,-0.002 0.01188,-0.003 0.0011,-2.7e-4 0.0044,-10e-4 0.0055,-10e-4 0.04327,-0.0204 0.08731,-0.0491 0.125346,-0.0718 0.03467,-0.0206 -0.06985,0.0404 -0.104754,0.0607 -0.0016,7.9e-4 0.003,-0.002 0.0044,-0.002 0.0068,-0.004 0.01431,-0.007 0.02175,-0.009 0.0064,-0.003 0.01336,-0.004 0.02019,-0.005 0.0077,-7.9e-4 0.01537,-0.001 0.02304,-0.002 0.0069,-0.001 0.01376,-0.002 0.02066,-0.002 0.0062,-5.3e-4 0.01252,-5.3e-4 0.01876,-2.6e-4 0.0053,5.3e-4 0.01042,-1.1e-4 0.01566,-5.3e-4 0.0074,-5.3e-4 0.01476,-0.002 0.02207,-0.003 0.01005,-0.002 0.02021,-0.002 0.03038,-0.002 0.0096,1.4e-4 0.01926,-5.3e-4 0.02886,-0.001 0.0085,-2.6e-4 0.01704,-0.001 0.02558,-0.002 0.0068,-2.6e-4 0.01365,-2.6e-4 0.0205,-2.6e-4 0.006,-1.8e-4 0.01201,1.1e-4 0.01805,1.2e-4 0.0047,1.1e-4 0.0093,1.3e-4 0.014,1.3e-4 0.0055,-5.3e-4 0.01111,5.3e-4 0.01667,10e-4 0.01079,5.3e-4 0.02159,-2.6e-4 0.0324,-1.9e-4 0.0113,2.3e-4 0.02246,0.002 0.03359,0.004 0.004,1.6e-4 0.0079,0.001 0.01188,0.001 7.93e-4,-1e-5 0.0041,-5.2e-4 0.0049,-5.2e-4 0.0042,-2.7e-4 0.0084,-2.7e-4 0.01252,-0.001 0.0021,5.3e-4 0.0031,-7.9e-4 0.0048,-0.001 5.29e-4,-1.7e-4 0.0011,4e-5 0.0016,-1.1e-4 7.93e-4,-2.3e-4 0.0016,-0.001 0.0024,-0.002 0.04528,-0.002 0.0011,1.8e-4 0.115287,-0.0656 5.29e-4,-2.6e-4 0.0021,-0.001 0.0016,-0.001 -0.03643,0.021 -0.145116,0.0851 -0.109291,0.0631 0.140263,-0.0863 0.07853,-0.0384 0.115961,-0.0675 0.0024,-0.002 0.0047,-0.004 0.0072,-0.006 7.94e-4,-5.3e-4 0.0019,-10e-4 0.0027,-0.002 0.0028,-0.002 0.0024,-0.002 0.0049,-0.004 0.0052,-0.003 0.0099,-0.007 0.01466,-0.0109 0.0016,-0.001 0.0029,-0.003 0.0045,-0.004 7.93e-4,-5.3e-4 0.0016,-7.9e-4 0.0024,-0.002 0.0024,-0.002 0.003,-0.003 0.0057,-0.005 1.03e-4,-1.3e-4 0.0026,-0.003 0.0028,-0.003 5.29e-4,-7.9e-4 5.29e-4,-0.002 0.0011,-0.002 2.64e-4,-5.3e-4 0.0011,-8e-4 0.0013,-10e-4 0.0024,-0.003 -5.29e-4,-7.9e-4 0.0021,-0.003 2.44e-4,-5.3e-4 0.0011,-0.002 0.0016,-0.003 0.0019,-0.001 7.94e-4,8e-4 0.0027,-0.001 0.0028,-0.003 -7.94e-4,-5.3e-4 0.0024,-0.002 0.0011,-5.3e-4 0.0019,-0.002 0.0027,-0.002 5.29e-4,-2.6e-4 0.0011,-5.3e-4 0.0016,-7.9e-4 5.29e-4,-2.6e-4 0.0011,-7.9e-4 0.0016,-0.001 5.29e-4,-2.5e-4 0.0024,-7.9e-4 0.0019,-5.3e-4 -0.03662,0.0213 -0.0734,0.0424 -0.110101,0.0636 0.0019,-10e-4 0.0034,-0.003 0.0055,-0.004 0.0026,-2.3e-4 0.0013,0 0.0037,-8e-4 0.0047,-0.002 0.0097,-0.002 0.01474,-0.003 0.0079,-0.001 0.01585,-0.002 0.02381,-0.002 0.0038,5e-5 0.0076,2.2e-4 0.01135,2.6e-4 0.0013,6e-5 0.0026,9e-5 0.004,10e-5 0,0 0.106545,-0.0774 0.106545,-0.0774 v 0 c -0.0013,1e-5 -0.0028,4e-5 -0.0043,8e-5 -0.0044,1.4e-4 -0.0088,2.6e-4 -0.0132,5.3e-4 -0.0082,2.6e-4 -0.01633,5.3e-4 -0.0245,7.9e-4 -0.0011,8e-5 -0.0021,1e-4 -0.0034,2.2e-4 -7.93e-4,1.1e-4 -0.0019,5.3e-4 -0.0027,5.3e-4 -0.0028,1.3e-4 -0.0058,-7.9e-4 -0.0086,-3e-5 -5.29e-4,1.4e-4 -0.0011,2.2e-4 -0.0019,5.3e-4 -5.29e-4,1.8e-4 -0.0011,5.3e-4 -0.0016,7.9e-4 -0.0021,5.3e-4 -0.0058,-5.3e-4 -0.0081,7.9e-4 -0.03798,0.0219 -0.08856,0.0384 -0.12074,0.0727 -0.0027,0.004 5.3e-4,-5.3e-4 -0.0024,0.002 -0.0016,0.002 -0.0019,0.004 -0.0039,0.005 -0.0019,0.003 2.64e-4,-1.6e-4 -0.0019,0.002 -5.3e-4,5.3e-4 -5.3e-4,10e-4 -0.0011,0.002 -0.0013,0.001 -0.0032,0.002 -0.0045,0.003 -0.0016,0.002 -0.0034,0.003 -0.0053,0.004 -0.0021,0.002 -0.0042,0.004 -0.0068,0.005 -0.0048,0.004 -0.0097,0.007 -0.0145,0.0107 -0.0053,0.003 -0.0099,0.007 -0.01535,0.0105 -0.03605,0.0193 0.141994,-0.0813 0.106217,-0.0614 -0.0383,0.0212 -0.07587,0.0437 -0.113808,0.0656 -7.94e-4,2.6e-4 -0.0027,0.002 -0.0021,10e-4 0.111226,-0.0641 0.134165,-0.0995 0.110022,-0.0626 -0.0011,1.1e-4 -0.0021,6e-5 -0.003,7.9e-4 -5.29e-4,2.7e-4 -5.29e-4,0.001 -0.0011,0.001 -0.0013,7.9e-4 -0.0031,10e-5 -0.0044,0.002 -5.29e-4,2.1e-4 -0.0013,5.3e-4 -0.0019,5.3e-4 -5.29e-4,2.6e-4 -0.0011,7.9e-4 -0.0016,0.001 -5.29e-4,2.5e-4 -0.0013,2.2e-4 -0.0019,2.7e-4 -0.0021,5.3e-4 -0.0039,0.002 -0.0061,0.002 -0.0011,1.1e-4 -0.0038,5.3e-4 -0.0049,5.3e-4 -0.0016,2.6e-4 -0.0032,0.001 -0.0048,0.001 -5.3e-4,7e-5 -0.0064,3e-5 -0.0067,3e-5 -0.01217,-9e-5 -0.02437,-7.9e-4 -0.03646,-0.002 -0.0097,-7.9e-4 -0.01939,-0.002 -0.02917,-0.002 -0.0055,-2.4e-4 -0.01111,-2.6e-4 -0.0164,-0.002 -0.0048,0 -0.0096,2e-5 -0.01431,1.2e-4 -0.0061,0 -0.01228,2.6e-4 -0.01844,10e-5 -0.0071,1e-5 -0.01429,1.1e-4 -0.02143,2.7e-4 -0.0087,2.6e-4 -0.01746,0.001 -0.02611,0.002 -0.0097,2.5e-4 -0.01929,0.002 -0.02898,0.002 -0.01029,1e-4 -0.02058,1.4e-4 -0.03086,7.9e-4 -0.0024,1.7e-4 -0.0063,5.3e-4 -0.0087,7.9e-4 -0.0011,1.7e-4 -0.0021,5.3e-4 -0.0033,8e-4 -0.0027,2.6e-4 -0.0054,-4e-5 -0.008,0.001 -0.0026,1.6e-4 -0.0051,2.4e-4 -0.0077,5.3e-4 -0.0016,2.4e-4 -0.0032,7.9e-4 -0.0049,10e-4 -7.94e-4,1e-4 -0.0019,-10e-6 -0.0028,-10e-6 -0.0065,1.2e-4 -0.01302,2.1e-4 -0.0195,1.3e-4 -0.0073,1.6e-4 -0.01463,5.3e-4 -0.02183,0.002 -0.0069,0.001 -5.29e-4,2.5e-4 -0.0075,0.001 -0.0051,5.3e-4 -0.01,0.002 -0.01513,10e-4 -0.0072,5.3e-4 -0.01426,0.001 -0.02138,0.002 -0.0084,0.002 -0.0164,0.006 -0.02458,0.009 -0.0442,0.0217 0.0016,-0.001 -0.118504,0.068 -0.03511,0.0201 0.07009,-0.0405 0.105161,-0.0607 0.0024,-0.001 -0.0046,0.003 -0.0068,0.004 -7.94e-4,5.3e-4 -0.0019,0.001 -0.0026,0.002 -0.0021,0.002 -0.0024,0.002 -0.0047,0.003 -0.0031,10e-4 -0.0028,2.7e-4 -0.0059,0.002 -7.94e-4,2.6e-4 -0.0016,0.001 -0.0026,0.001 -7.94e-4,5.3e-4 -0.0019,7.9e-4 -0.0028,10e-4 -0.0066,0.002 -0.01291,0.004 -0.01984,0.003 -0.0098,2e-4 -0.01963,5.3e-4 -0.02946,-4e-5 -0.005,-2e-4 -0.01003,-2.7e-4 -0.01503,-8e-4 -0.0034,-2.5e-4 -0.0068,-7.9e-4 -0.01019,-0.001 -0.0016,-9e-5 -0.0033,-2e-5 -0.0049,-3e-5 -0.0113,3e-5 -0.02262,-1e-5 -0.03392,-2.6e-4 -5.3e-4,-2e-5 -0.0117,-2.5e-4 -0.0123,-2.3e-4 -0.0054,1.5e-4 -0.01061,0.001 -0.01593,0.002 -0.0019,2.7e-4 -0.0036,5.3e-4 -0.0053,8e-4 -0.0037,5.3e-4 -0.0075,0.001 -0.01122,0.002 -0.0066,10e-4 -0.01307,0.003 -0.01955,0.004 -0.0024,5.3e-4 -0.0047,0.001 -0.0071,0.002 -0.01045,0.002 -0.02088,0.005 -0.03157,0.006 0,0 -0.105944,0.077 -0.105944,0.077 z" />
    <path
       style="fill:#030102;stroke-width:0.264583"
       id="path308"
       d="m 28.88607,128.07541 c 0.07089,-0.0127 0.141404,-0.0277 0.211238,-0.0453 0.04857,-0.0116 0.09503,-0.0295 0.141801,-0.0466 0.03232,-0.0148 0.06606,-0.0252 0.100076,-0.0353 0.031,-0.011 0.06309,-0.0184 0.09468,-0.0274 0.03338,-0.009 0.06612,-0.0203 0.09916,-0.0305 0.02638,-0.008 0.05215,-0.0179 0.07872,-0.0254 0.03505,-0.007 0.07088,-0.01 0.106289,-0.0148 0.04812,-0.008 0.09687,-0.0111 0.145579,-0.013 0.04601,-8e-4 0.09179,-0.006 0.137676,-0.009 0.02986,-7.9e-4 0.05943,-0.003 0.08901,-0.007 0.04087,-0.007 0.08206,-0.0118 0.123446,-0.0145 0.03891,-2.7e-4 0.07744,-0.005 0.116004,-0.01 0.02408,-0.004 0.04852,-0.003 0.07257,-0.007 0.01627,-0.003 0.03289,-0.005 0.04917,-0.008 0.0185,-0.005 0.03752,-0.006 0.05639,-0.007 0.0032,-2.7e-4 0.0064,-8e-4 0.0097,-10e-4 0,0 0.105836,-0.0783 0.105836,-0.0783 v 0 c -0.0034,1.8e-4 -0.0068,2.6e-4 -0.01024,5.3e-4 -0.01871,0.004 -0.038,0.002 -0.05666,0.007 -0.01627,0.004 -0.03254,0.006 -0.049,0.008 -0.02405,0.005 -0.04831,0.005 -0.07266,0.008 -0.03853,0.005 -0.07693,0.011 -0.115882,0.0106 -0.04135,0.002 -0.08266,0.006 -0.123457,0.0134 -0.02964,0.004 -0.05896,0.008 -0.08896,0.008 -0.04595,0.003 -0.09178,0.008 -0.137819,0.009 -0.04885,0.002 -0.0978,0.004 -0.146129,0.0116 -0.03531,0.006 -0.07102,0.009 -0.106471,0.0133 -0.02705,0.006 -0.05295,0.0163 -0.07924,0.0251 -0.03332,0.01 -0.06575,0.022 -0.09935,0.0306 -0.03135,0.01 -0.06392,0.0157 -0.0946,0.0276 -0.03426,0.01 -0.06873,0.0187 -0.100637,0.0347 -0.04729,0.0166 -0.09333,0.0368 -0.142306,0.0485 -0.06892,0.0182 -0.13875,0.0335 -0.209132,0.045 0,0 -0.10478,0.0789 -0.10478,0.0789 z" />
    <path
       style="fill:#030102;stroke-width:0.264583"
       id="path310"
       d="m 28.989771,128.07833 c 0.05501,-5.2e-4 0.109874,-0.005 0.164809,-0.008 0.05069,-0.002 0.101444,-0.003 0.15218,-0.003 0.0514,-0.001 0.102698,-7.9e-4 0.153787,0.005 0.04332,0.005 0.08582,0.0147 0.128587,0.0229 0.04361,0.008 0.08785,0.0108 0.131792,0.0162 0.03451,0.004 0.06885,0.01 0.102851,0.0166 0.04119,0.009 0.08276,0.0159 0.124098,0.0241 0.04576,0.009 0.09239,0.0107 0.138845,0.0122 0.04875,5.3e-4 0.09755,0.002 0.146273,-1.6e-4 0.04238,-0.003 0.08474,-0.006 0.127209,-0.008 0.02622,-0.001 0.05246,-0.001 0.0787,-0.001 0.01654,-8e-4 0.03284,0.002 0.0483,0.008 0.0075,0.003 0.015,0.006 0.02252,0.008 0.0029,0.001 0.01061,0.005 0.0086,0.003 -0.0021,-0.002 -0.0048,-0.004 -0.0071,-0.006 0.17598,-0.0955 0.122298,-0.0657 0.06777,-0.0559 -0.02503,0.004 -0.05009,0.007 -0.07539,0.0101 -0.0468,0.004 -0.09368,0.006 -0.140589,0.003 -0.03689,-0.003 -0.07348,-0.009 -0.109951,-0.0153 -0.05128,-0.009 -0.102168,-0.0201 -0.153789,-0.0276 -0.04555,-0.007 -0.0917,-0.007 -0.137549,-0.0111 -0.03611,-0.003 -0.07203,-0.008 -0.107995,-0.0127 -0.03866,-0.006 -0.07725,-0.0127 -0.116355,-0.0156 -0.04168,-0.002 -0.08343,-0.003 -0.125164,-0.003 -0.04474,-7e-5 -0.08934,0.005 -0.133964,0.008 -0.0327,5.3e-4 -0.06502,0.004 -0.09737,0.009 -0.02852,0.006 -0.05537,-0.005 -0.08207,-0.0141 -0.03169,-0.0101 -0.0635,-0.0201 -0.09579,-0.0282 -0.0019,-5.2e-4 -0.01738,-0.004 -0.02061,-0.004 -0.0044,-8e-4 0.01696,-5.3e-4 0.01328,0.002 -0.04894,0.0343 -0.139756,0.0779 -0.07566,0.0466 0.04075,-0.018 0.08213,-0.0343 0.125519,-0.0446 0.03449,-0.008 0.06962,-0.0132 0.104928,-0.0162 0.03105,-0.002 0.0622,-0.002 0.0933,-0.002 0.02426,-0.001 0.04814,0.002 0.07208,0.005 0.02826,0.006 0.0563,0.0127 0.08443,0.0192 0.03481,0.009 0.07055,0.0129 0.106307,0.0156 0.02746,0.001 0.05447,0.007 0.08181,0.009 0.02711,0.002 0.0543,0.003 0.08148,0.003 0.02785,1.2e-4 0.05569,0 0.08353,1e-5 0.02368,-0.001 0.04692,0.004 0.07024,0.007 0.02262,0.003 0.04543,0.003 0.06819,0.003 0.02418,-2.7e-4 0.04779,0.006 0.07164,0.009 0.02643,10e-4 0.0524,0.006 0.07847,0.01 0.027,0.004 0.05411,0.008 0.08104,0.0128 0.02408,0.004 0.04712,0.0121 0.07094,0.0171 0.024,0.005 0.04862,0.005 0.07294,0.007 0.01545,0.002 0.03199,0.006 0.04683,0.007 -0.03807,-0.0376 -0.0099,-0.004 0.09359,-0.0699 0.0051,-0.003 -0.01132,0.004 -0.01704,0.006 -0.02222,0.007 -0.04451,0.012 -0.06739,0.0163 -0.05319,0.0101 -0.10731,0.007 -0.16102,0.005 -0.03372,-0.004 -0.06711,-0.009 -0.100875,-0.0126 -0.02588,-0.003 -0.05125,-0.009 -0.07648,-0.0155 -0.03369,-0.007 -0.0667,-0.0175 -0.10068,-0.0236 -0.04074,-0.006 -0.08135,-0.0137 -0.122142,-0.0198 -0.02934,-0.003 -0.05828,-0.008 -0.08736,-0.0126 -0.02265,-0.005 -0.04536,-0.009 -0.06788,-0.0147 -0.0254,-0.005 -0.05078,-0.0102 -0.07637,-0.014 -0.02495,-0.004 -0.04835,-0.0134 -0.0717,-0.0224 -0.03005,-0.0117 -0.06204,-0.0172 -0.09385,-0.0216 -0.0205,-0.004 -0.01614,0.001 -0.0083,-0.007 0.0019,-0.002 0.0034,-0.005 0.0051,-0.007 0.0021,-0.002 0.004,-0.004 0.0061,-0.006 0.03766,-0.0248 0.09373,-0.0581 -0.09052,0.0524 -0.0024,0.002 0.0053,-0.002 0.0081,-0.003 0.0081,-0.002 0.01254,-0.003 0.02098,-0.004 0.03134,-0.002 0.06283,-0.002 0.09423,-0.002 0.02757,2e-4 0.05514,2.7e-4 0.08271,2.7e-4 0.02371,1.1e-4 0.04739,7e-5 0.07108,7e-5 0.02154,-7.9e-4 0.04261,0.004 0.06378,0.007 0.02434,0.003 0.04869,0.003 0.07294,0.007 0.03677,0.007 0.07315,0.0155 0.109268,0.025 0.02741,0.008 0.05454,0.0154 0.0826,0.0202 0.02625,0.003 0.05219,0.008 0.07841,0.0116 0.02949,0.003 0.05872,0.007 0.08815,0.0105 0.02252,0.002 0.04513,0.003 0.06774,0.004 0.02085,0.002 0.0416,0.006 0.06233,0.009 0.02178,0.002 0.04348,0.005 0.06524,0.007 0.0136,0.001 0.02683,-0.003 0.04015,-0.005 0.01241,-0.001 0.02498,-0.003 0.03744,-0.002 0.0061,7.9e-4 0.01193,0.001 0.01754,0.004 0.0011,5.3e-4 0.0028,0.003 0.0034,0.002 5.29e-4,-0.001 -0.0019,-0.002 -0.0026,-0.003 0.18786,-0.12313 0.124767,-0.0714 0.07401,-0.0593 -0.02384,0.006 -0.04844,0.009 -0.07261,0.0125 -0.05397,0.0112 -0.108989,0.01 -0.163748,0.009 -0.03977,-0.001 -0.0785,-0.009 -0.116519,-0.0204 -0.03593,-0.0108 -0.07203,-0.0209 -0.108829,-0.0283 -0.0341,-0.006 -0.0684,-0.0102 -0.102854,-0.0132 -0.03807,-0.004 -0.0759,-0.01 -0.114043,-0.0131 -0.0249,-7.9e-4 -0.04956,-0.003 -0.07408,-0.008 -0.02484,-0.006 -0.04993,-0.01 -0.07536,-0.0119 -0.0355,-5.3e-4 -0.07082,-0.003 -0.106196,-0.006 -0.03636,-0.003 -0.07279,-0.005 -0.109252,-0.006 -0.01963,-5.3e-4 -0.03929,-5.3e-4 -0.05894,-7.9e-4 -0.04637,-2.7e-4 -0.01857,-0.001 -0.102444,0.0768 -0.0041,0.004 0.01103,-0.001 0.01651,-0.002 0.007,-10e-4 0.01402,-0.002 0.02106,-0.003 0.03368,-0.005 0.01775,-0.003 0.05178,-0.009 0.03622,-0.008 0.07294,-0.0129 0.109136,-0.0207 0.02726,-0.006 0.05522,-0.008 0.08282,-0.0121 0.02426,-0.002 0.04782,-0.008 0.07159,-0.0135 0.01849,-0.003 0.03557,-0.0106 0.05281,-0.0176 0.01206,-0.006 0.02482,-0.0104 0.03713,-0.0161 0.02048,-0.008 0.04302,-0.008 0.06471,-0.009 0.02159,-0.002 0.04263,0.002 0.0638,0.005 0.02841,0.006 0.05533,0.0173 0.08298,0.0261 0.02429,0.007 0.04837,0.0143 0.07328,0.0185 0.01995,0.003 0.04011,0.003 0.06006,0.006 0.028,0.004 0.05595,0.007 0.08387,0.0114 0.02823,0.004 0.05672,0.006 0.08522,0.007 0.02088,8e-4 0.04177,-5.3e-4 0.06248,0.003 0.0186,0.003 0.03734,0.006 0.05615,0.007 0.01482,0.003 0.02956,0.006 0.04422,0.01 0.01905,0.005 0.03704,0.0125 0.05321,0.0238 0.0072,0.007 0.01879,0.0129 0.02281,0.0225 0.0029,0.007 -0.01204,0.004 -0.01095,0.003 0.03062,-0.0218 0.06358,-0.04 0.09538,-0.06 -0.04494,0.007 -0.09085,0.01 -0.136316,0.008 -0.02997,-0.003 -0.05784,-0.0147 -0.08498,-0.0268 -0.02569,-0.0126 -0.05242,-0.0227 -0.0793,-0.0324 -0.03456,-0.0119 -0.06962,-0.0206 -0.105891,-0.025 -0.03462,-0.004 -0.06954,-0.003 -0.104246,-0.005 -0.02506,-0.003 -0.05034,-0.005 -0.07504,-0.0105 -0.02543,-0.006 -0.05155,-0.008 -0.07758,-0.009 -0.02945,-0.002 -0.05868,-7.9e-4 -0.08791,0.003 -0.01937,0.003 -0.03885,0.005 -0.05842,0.006 -0.02101,-5.3e-4 -0.04155,0.002 -0.06227,0.005 -0.02572,0.004 -0.05165,0.005 -0.07759,0.006 -0.02164,-2.7e-4 -0.04307,0.002 -0.0636,0.009 -0.05482,0.022 -0.10551,0.0575 -0.155141,0.0868 -0.0035,0.002 -0.02922,0.0189 -0.02561,0.0232 0.0041,0.005 0.0098,0.008 0.01463,0.0123 0.323813,-0.18711 0.04718,-0.0274 0.03468,-0.0198 -0.0076,0.005 0.0158,-0.008 0.02379,-0.0119 0.02463,-0.0118 0.04974,-0.0225 0.07488,-0.0332 0.03641,-0.0138 0.07421,-0.0241 0.112255,-0.0323 0.02048,-0.005 0.04139,-0.006 0.06229,-0.006 0.04481,7.9e-4 0.08943,-0.002 0.134109,-0.005 0.05636,-0.005 0.112752,-0.01 0.168921,-0.0167 0.04748,-0.005 0.09482,-0.0122 0.142015,-0.0198 0.03734,-0.008 0.07439,-0.0166 0.111847,-0.0237 0.0263,-0.005 0.05295,-0.007 0.07966,-0.009 0.02172,-8e-4 0.04346,-5.3e-4 0.0652,-5.3e-4 0.01841,-0.001 0.03558,10e-4 0.0527,0.008 0.0074,0.003 0.01556,0.005 0.02304,0.008 0.0013,5.3e-4 0.0046,0.004 0.004,0.002 -7.93e-4,-0.002 -0.0069,-0.003 -0.005,-0.005 0.03292,-0.0236 0.06835,-0.0435 0.102526,-0.0653 -0.04195,0.0172 -0.08751,0.0224 -0.132265,0.0269 -0.04265,0.004 -0.08549,0.004 -0.128276,0.004 -0.03099,7.9e-4 -0.0616,-0.005 -0.09238,-0.007 -0.0357,-0.003 -0.07153,-0.002 -0.107301,-0.003 -0.261366,0.067 -0.108233,0.0773 -0.07251,0.0802 0.03102,0.003 0.06205,0.004 0.09305,0.007 0.05117,0.006 0.102751,0.008 0.154014,0.0135 0.02479,0.004 0.04997,0.006 0.07452,0.0111 0.01722,0.005 0.03516,0.006 0.05302,0.007 0,0 0.106725,-0.077 0.106725,-0.077 v 0 c -0.01717,-5.3e-4 -0.0347,-3e-5 -0.05139,-0.005 -0.02506,-0.006 -0.05082,-0.008 -0.07628,-0.0118 -0.05146,-0.006 -0.10359,-0.006 -0.155011,-0.013 -0.03078,-0.003 -0.0616,-0.005 -0.09238,-0.008 -0.0075,-8e-4 -0.01585,-0.006 -0.02257,-0.002 -0.04197,0.0214 -0.08006,0.0497 -0.119796,0.075 -5.29e-4,2.7e-4 0.0013,-4e-5 0.0021,-6e-5 0.03571,-2.2e-4 0.07145,5.3e-4 0.107109,0.002 0.03115,0.002 0.06199,0.008 0.09324,0.008 0.04311,-2.1e-4 0.08627,-2.7e-4 0.129283,-0.003 0.04508,-0.004 0.09052,-0.009 0.133834,-0.0229 0.07744,-0.0471 0.17185,-0.0695 0.08813,-0.0953 -0.01812,-0.007 -0.03569,-0.014 -0.05574,-0.0117 -0.02183,-6e-5 -0.04364,-2.4e-4 -0.06546,7e-5 -0.02726,7.9e-4 -0.05449,0.003 -0.08139,0.007 -0.0376,0.007 -0.07494,0.0148 -0.111982,0.0242 -0.04719,0.008 -0.09443,0.0149 -0.141907,0.0203 -0.05613,0.007 -0.112363,0.0126 -0.168711,0.0175 -0.04414,0.003 -0.0882,0.006 -0.132445,0.004 -0.0214,-5e-5 -0.04289,1.9e-4 -0.06398,0.004 -0.03884,0.008 -0.07712,0.0185 -0.114646,0.031 -0.03299,0.0136 -0.06813,0.0264 -0.09936,0.0437 -0.03376,0.0187 -0.274505,0.15774 -0.03349,0.0187 0.0013,0.006 0.0021,0.0123 0.0042,0.0182 1.9e-4,5.3e-4 0.0024,-0.002 0.0078,-0.006 0.0062,-0.005 0.01286,-0.009 0.01894,-0.0136 -0.198734,0.1143 -0.117512,0.0659 -0.07134,0.0428 0.01982,-0.007 0.03989,-0.0136 0.06139,-0.0127 0.02622,-5.2e-4 0.05242,-0.002 0.07846,-0.005 0.02048,-0.003 0.04038,-0.007 0.0612,-0.006 0.0199,-5.3e-4 0.0398,-0.002 0.05947,-0.005 0.0288,-0.004 0.05739,-0.007 0.08657,-0.005 0.02545,7.9e-4 0.05102,0.002 0.07599,0.007 0.02514,0.006 0.0506,0.009 0.07628,0.0118 0.03465,0.004 0.06988,7.9e-4 0.104622,0.005 0.03561,0.003 0.06992,0.0112 0.103873,0.0226 0.02661,0.009 0.0529,0.0196 0.07841,0.0316 0.0281,0.0133 0.05731,0.0256 0.08814,0.0308 0.04611,0.003 0.09254,-0.001 0.138496,-0.005 0.02652,-0.0138 0.154239,-0.0473 0.132776,-0.0898 -0.0053,-0.0104 -0.01632,-0.018 -0.02474,-0.0256 -0.01709,-0.0132 -0.03555,-0.0217 -0.05615,-0.0282 -0.01521,-0.004 -0.03043,-0.007 -0.04522,-0.012 -0.0186,-8e-4 -0.03718,-0.003 -0.05556,-0.006 -0.02119,-0.004 -0.04217,-0.004 -0.06377,-0.004 -0.02825,-5.3e-4 -0.05653,-0.002 -0.08457,-0.005 -0.02783,-0.004 -0.05543,-0.009 -0.08341,-0.0115 -0.02,-0.003 -0.03979,-0.005 -0.06012,-0.006 -0.02479,-0.003 -0.0485,-0.0102 -0.07256,-0.0168 -0.02823,-0.008 -0.05539,-0.0195 -0.08355,-0.0278 -0.02178,-0.003 -0.04322,-0.009 -0.06542,-0.007 -0.02238,5.3e-4 -0.04503,7.9e-4 -0.0671,0.005 -0.0068,0.002 -0.01198,0.006 -0.01828,0.009 -0.0061,0.003 -0.014,0.002 -0.0195,0.007 -0.01574,0.009 -0.03357,0.0151 -0.05092,0.0205 -0.024,0.004 -0.04717,0.0121 -0.07158,0.0142 -0.02772,0.004 -0.05563,0.006 -0.08325,0.0115 -0.0365,0.008 -0.07321,0.0142 -0.109821,0.0216 -0.02373,0.005 -0.04763,0.009 -0.07156,0.0125 -0.0054,8e-4 -0.01159,-0.001 -0.01622,0.002 -0.03985,0.0246 -0.07778,0.0521 -0.115652,0.0797 -0.0016,0.001 0.004,-5e-5 0.0061,-7e-5 0.01971,-7e-5 0.03945,-1.7e-4 0.05917,10e-5 0.0365,5.3e-4 0.07299,0.002 0.109392,0.005 0.03521,0.003 0.07026,0.007 0.105651,0.007 0.02506,0.001 0.04997,0.004 0.07435,0.0105 0.02466,0.006 0.04994,0.008 0.07524,0.009 0.03833,0.003 0.07638,0.008 0.114464,0.0126 0.03411,0.003 0.06783,0.008 0.101687,0.0124 0.0367,0.006 0.07251,0.0164 0.108207,0.027 0.03873,0.0124 0.07838,0.0213 0.119174,0.0229 0.05508,0.001 0.110595,0.004 0.165007,-0.006 0.02424,-0.004 0.0486,-0.007 0.07282,-0.0115 0.0019,-2.7e-4 0.02671,-0.004 0.03155,-0.007 0.03888,-0.0242 0.07663,-0.0502 0.114945,-0.0752 -0.0053,-0.0103 -0.01569,-0.0144 -0.02701,-0.0157 -0.01315,-0.002 -0.02622,-0.002 -0.03955,-10e-4 -0.01315,10e-4 -0.0259,0.004 -0.03869,0.007 -0.02164,-0.002 -0.04313,-0.005 -0.06482,-0.006 -0.02098,-0.004 -0.04254,-0.005 -0.06343,-0.0106 -0.02249,-1.1e-4 -0.04497,-5.2e-4 -0.06738,-0.002 -0.02943,-0.003 -0.05855,-0.007 -0.08789,-0.0105 -0.02625,-0.003 -0.05205,-0.008 -0.07819,-0.0111 -0.02803,-0.004 -0.05495,-0.0111 -0.08209,-0.0189 -0.0364,-0.009 -0.07294,-0.0186 -0.109847,-0.0258 -0.02418,-0.005 -0.04814,-0.006 -0.07277,-0.007 -0.0217,-0.003 -0.04311,-0.008 -0.06496,-0.008 -0.02373,0 -0.04744,-5e-5 -0.07117,0 -0.02765,-2e-5 -0.0553,-1e-4 -0.08295,-1.3e-4 -0.03153,-8e-5 -0.06308,-5.3e-4 -0.0946,5.3e-4 -0.063,0.004 -0.123113,0.0373 -0.165335,0.0847 -0.01225,0.0182 -0.0209,0.0436 0.01114,0.0449 0.03111,0.003 0.06268,0.008 0.09198,0.0192 0.02429,0.009 0.04794,0.0199 0.0735,0.0246 0.02537,0.003 0.0502,0.009 0.07541,0.0132 0.02286,0.005 0.04589,0.01 0.06868,0.0156 0.02934,0.004 0.05825,0.0106 0.08788,0.0123 0.04073,0.006 0.08118,0.0129 0.121674,0.0198 0.03392,0.005 0.06662,0.0148 0.09998,0.0225 0.02558,0.007 0.05143,0.0133 0.07771,0.0174 0.03415,0.003 0.06792,0.008 0.101822,0.0125 0.05425,0.003 0.108956,0.006 0.162865,-0.002 0.0846,-0.0137 0.127116,-0.033 0.208761,-0.0876 0.0038,-0.003 -0.0013,-0.009 -0.0021,-0.0137 -0.0016,-0.002 -0.0026,-0.004 -0.0046,-0.005 -0.0096,-0.005 -0.03599,-0.002 -0.0467,-0.007 -0.02397,-0.004 -0.04853,-0.002 -0.07251,-0.006 -0.02413,-0.004 -0.04695,-0.0127 -0.07106,-0.017 -0.02677,-0.006 -0.05427,-0.008 -0.08118,-0.0133 -0.02625,-0.004 -0.05217,-0.01 -0.0788,-0.01 -0.02424,-0.003 -0.04804,-0.009 -0.07229,-0.0101 -0.02244,-1.4e-4 -0.04491,-2.6e-4 -0.06729,-0.002 -0.02384,-0.003 -0.04743,-0.009 -0.0715,-0.008 -0.02775,6e-5 -0.0555,9e-5 -0.08325,-5e-5 -0.02708,-1.1e-4 -0.05418,-5.3e-4 -0.08121,-0.002 -0.0275,-0.002 -0.05453,-0.007 -0.08198,-0.009 -0.03532,-0.002 -0.07074,-0.005 -0.105153,-0.0136 -0.02821,-0.007 -0.05678,-0.0127 -0.08475,-0.0208 -0.02445,-0.003 -0.04865,-0.008 -0.07341,-0.006 -0.03129,3e-5 -0.0626,-1.9e-4 -0.09387,10e-4 -0.03572,0.002 -0.07133,0.007 -0.106262,0.0149 -0.0442,0.009 -0.08608,0.0249 -0.127474,0.0427 -0.05881,0.0244 -0.06373,0.0254 -0.148574,0.0836 -0.0084,0.006 -0.0065,0.0195 7.94e-4,0.0244 0.0058,0.004 0.01516,-0.002 0.02056,0.003 0.03232,0.007 0.06386,0.0171 0.09546,0.0268 0.02718,0.01 0.05588,0.0232 0.08515,0.0193 0.0324,-0.004 0.06459,-0.0101 0.09741,-0.01 0.04442,-0.003 0.08879,-0.008 0.133305,-0.008 0.0416,4e-5 0.08322,1e-5 0.124791,0.002 0.03894,0.002 0.07755,0.008 0.115866,0.015 0.03605,0.004 0.07189,0.01 0.108083,0.0131 0.04588,0.005 0.09239,0.003 0.13812,0.01 0.05138,0.007 0.101767,0.0177 0.152551,0.0278 0.0367,0.007 0.07398,0.0122 0.111093,0.0163 0.04747,0.004 0.09479,0.003 0.142235,-0.002 0.02529,-0.002 0.05051,-0.005 0.07559,-0.009 0.0065,-0.001 0.01299,-0.003 0.01953,-0.004 0.0054,-8e-4 0.01138,5.2e-4 0.01619,-0.002 0.04161,-0.0216 0.08139,-0.0466 0.122082,-0.0699 -0.0011,-0.004 -0.0011,-0.009 -0.0029,-0.0124 -0.0026,-0.006 -0.02689,-0.01 -0.03288,-0.0134 -0.01633,-0.007 -0.03346,-0.0122 -0.05128,-0.0117 -0.02655,1.1e-4 -0.0531,2.7e-4 -0.07964,0.001 -0.04265,0.002 -0.08521,0.005 -0.127722,0.008 -0.04845,0.003 -0.09706,0.001 -0.145584,0.001 -0.04593,-0.001 -0.09205,-0.002 -0.137406,-0.0105 -0.04117,-0.008 -0.08249,-0.0151 -0.123442,-0.0241 -0.03406,-0.008 -0.0693,-0.0127 -0.104013,-0.0174 -0.04383,-0.005 -0.0879,-0.008 -0.131543,-0.0153 -0.04298,-0.008 -0.08549,-0.0187 -0.129047,-0.0235 -0.05141,-0.007 -0.103072,-0.008 -0.154917,-0.007 -0.05091,1.5e-4 -0.10183,5.3e-4 -0.152701,0.003 -0.05447,0.002 -0.108884,0.008 -0.16341,0.008 0,0 -0.106182,0.0772 -0.106182,0.0772 z" />
    <path
       style="fill:#030102;stroke-width:0.264583"
       id="path312"
       d="m 29.971867,127.80013 c -0.0562,0.009 -0.113077,0.0139 -0.169923,0.0172 -0.03782,0.002 -0.07576,0.001 -0.113475,0.005 -0.02058,0.002 -0.04107,0.005 -0.06122,0.009 -0.01474,0.002 -0.02733,0.0105 -0.04082,0.0164 -0.01839,0.008 -0.03671,0.0163 -0.05523,0.0241 -0.0537,0.0232 -0.102103,0.0566 -0.152937,0.0854 0.0343,-0.0199 0.06875,-0.0396 0.102894,-0.0598 0.0035,-0.002 -0.0075,0.003 -0.01103,0.005 -0.04143,0.0236 -0.08242,0.048 -0.123936,0.0715 -0.03375,0.0191 0.134282,-0.0776 0.100656,-0.0583 -0.04969,0.0285 -0.253291,0.14672 -0.02323,0.0132 -0.06924,0.0206 -0.112937,0.0688 -0.169381,0.10535 -0.02296,0.0195 0.0056,-0.004 -0.01685,0.013 -0.0024,0.002 -0.0098,0.008 -0.0071,0.006 0.19091,-0.10856 0.126399,-0.0694 0.0847,-0.0523 -0.01823,0.007 -0.03748,0.011 -0.05604,0.0173 -0.01841,0.006 -0.0371,0.0109 -0.05593,0.0153 -0.01963,0.005 -0.03847,0.0126 -0.05752,0.0196 -0.02029,0.007 -0.04111,0.0116 -0.06087,0.0197 -0.02119,0.009 -0.04376,0.014 -0.06563,0.0211 -0.01476,0.006 -0.03027,0.008 -0.04594,0.009 0.0026,0.003 0.0057,0.007 0.01024,0.007 0.0028,2e-5 0.005,-0.002 0.0075,-0.004 -0.03398,0.0197 -0.06804,0.0393 -0.101936,0.0592 -0.0044,0.003 0.009,-0.005 0.01357,-0.007 0.0054,-0.003 0.01085,-0.006 0.01627,-0.008 0.0307,-0.0146 0.06292,-0.0261 0.09562,-0.0354 0.02831,-0.008 0.0571,-0.0144 0.08565,-0.0217 0.03666,-0.008 0.0729,-0.0176 0.10818,-0.0307 0.02384,-0.008 0.04664,-0.0177 0.0691,-0.0286 0.046,-0.0238 0.08936,-0.0531 0.135252,-0.0766 0.03606,-0.0185 -0.07022,0.0404 -0.105103,0.0609 -0.008,0.005 0.007,-0.003 0.01889,-0.009 0.05544,-0.039 0.119018,-0.0665 0.175265,-0.10457 0.05315,-0.0309 -0.09127,0.053 -0.09479,0.055 -0.0028,0.002 0.0057,-0.003 0.0086,-0.004 0.0081,-0.004 0.01646,-0.007 0.0245,-0.0114 0.03987,-0.0231 0.0798,-0.0461 0.119616,-0.0693 0.0029,-0.002 0.01082,-0.007 0.01077,-0.008 -5.29e-4,-0.0116 -0.01085,-0.0144 -0.02064,-0.0132 -0.0055,7.9e-4 -0.01006,0.004 -0.01508,0.007 -0.04154,0.0193 -0.08483,0.0345 -0.127812,0.0502 -0.03674,0.0142 -0.07342,0.0285 -0.109601,0.0441 -0.02162,0.009 -0.04364,0.0171 -0.06492,0.027 -0.02164,0.0104 -0.04251,0.0223 -0.06447,0.032 -0.01924,0.008 -0.03697,0.019 -0.05636,0.0266 -0.01587,0.005 -0.03049,0.0136 -0.04626,0.0192 -0.01598,0.005 -0.03175,0.01 -0.04708,0.0166 -0.01138,0.005 -0.02349,0.008 -0.03592,0.008 0.0053,0.005 0.0042,0.005 0.01667,-0.001 0.0071,-0.003 0.01304,-0.009 0.01974,-0.0126 0.0076,-0.005 0.03061,-0.0176 0.02302,-0.013 -0.08901,0.0529 -0.121296,0.068 -0.06898,0.0425 0.02791,-0.0135 0.05515,-0.015 0.08444,-0.007 0.02318,0.008 0.04741,0.0116 0.07172,0.0138 0.0033,1e-4 0.0065,2e-4 0.0098,2.6e-4 0,0 0.10624,-0.0778 0.10624,-0.0778 v 0 c -0.003,2.7e-4 -0.006,8e-4 -0.009,0.001 -0.02368,-0.002 -0.04758,-0.004 -0.07019,-0.0114 -0.03094,-0.01 -0.05983,-0.0137 -0.09093,-5.3e-4 -0.06607,0.0306 -0.02151,0.009 -0.154509,0.0856 -0.01662,0.01 -0.04847,0.0239 -0.05139,0.046 -5.29e-4,0.004 0.0034,0.006 0.005,0.009 0.01334,0.005 0.02739,0.002 0.04061,-0.002 0.01561,-0.006 0.03018,-0.0134 0.04639,-0.0176 0.01656,-0.004 0.0316,-0.0111 0.0467,-0.0188 0.0204,-0.006 0.03849,-0.0161 0.05711,-0.0261 0.02241,-0.009 0.04363,-0.0198 0.0645,-0.0316 0.02172,-0.009 0.04284,-0.0199 0.06536,-0.0274 0.03603,-0.0163 0.07289,-0.0304 0.109572,-0.0452 0.0428,-0.0158 0.08619,-0.0304 0.127804,-0.0491 0.0109,-0.005 0.01849,-0.004 0.01926,-0.018 1.64e-4,-0.003 -0.0011,-0.007 -0.0035,-0.008 -0.0016,-10e-4 -0.0031,0.002 -0.0047,0.003 -0.0021,0.001 -0.0083,0.005 -0.0062,0.004 0.03545,-0.0201 0.07077,-0.0405 0.106156,-0.0607 -0.05605,0.0271 -0.111781,0.0555 -0.163727,0.0907 -0.04508,0.0274 -0.147151,0.0915 0.04953,-0.0258 -0.04377,0.0271 -0.103838,0.0601 -0.139139,0.0785 -0.03619,0.0189 0.07115,-0.04 0.106386,-0.0606 0.0051,-0.003 -0.02217,0.009 -0.01606,0.007 -0.02125,0.013 -0.04499,0.0224 -0.06842,0.0305 -0.03514,0.0129 -0.07034,0.025 -0.107387,0.0317 -0.02839,0.008 -0.0572,0.0133 -0.08543,0.0215 -0.03342,0.008 -0.06591,0.0202 -0.09763,0.0335 -0.05307,0.0261 -0.09979,0.0547 -0.152937,0.086 -0.01103,0.006 -0.0096,0.0153 -0.0029,0.0249 0.01577,0.005 0.03426,-1e-5 0.04988,-0.004 0.02191,-0.007 0.04438,-0.0125 0.06598,-0.0208 0.02013,-0.007 0.03971,-0.016 0.06088,-0.0202 0.01931,-0.006 0.03747,-0.0143 0.05687,-0.0198 0.01823,-0.006 0.03784,-0.008 0.05611,-0.0149 0.01897,-0.006 0.03741,-0.0123 0.05679,-0.0167 0.05946,-0.0233 0.114504,-0.0571 0.165016,-0.0962 0.04216,-0.0306 0.136959,-0.0947 -0.05531,0.0251 0.04133,-0.0237 0.08243,-0.0478 0.123997,-0.071 0.03377,-0.0189 -0.134128,0.0773 -0.100611,0.0579 0.04133,-0.0238 0.083,-0.0471 0.124048,-0.0715 0.03344,-0.0198 -0.06757,0.0384 -0.101209,0.0579 -0.0035,0.002 0.0072,-0.004 0.0108,-0.006 0.04096,-0.0232 0.08191,-0.0463 0.122867,-0.0694 0.04029,-0.0238 0.05546,-0.0328 -0.09878,0.0566 -0.0019,10e-4 0.0038,-0.002 0.0055,-0.003 0.0066,-0.004 0.01299,-0.007 0.02016,-0.0101 0.01789,-0.009 0.03693,-0.0158 0.05513,-0.024 0.01307,-0.006 0.02606,-0.0122 0.03913,-0.0185 0.02024,-0.004 0.03999,-0.01 0.06086,-0.011 0.03779,-0.005 0.07575,-0.004 0.1138,-0.006 0.05683,-0.003 0.113591,-0.008 0.170018,-0.0155 0,0 0.104802,-0.0788 0.104802,-0.0788 z" />
  </g>
</svg>
